<?xml version="1.0" encoding="UTF-8" standalone="no"?>
<!-- Created with Inkscape (http://www.inkscape.org/) -->

<svg
   width="7.8396602mm"
   height="7.8396602mm"
   viewBox="0 0 7.8396602 7.8396602"
   version="1.1"
   id="svg1877"
   inkscape:version="1.1.2 (0a00cf5339, 2022-02-04)"
   sodipodi:docname="clock_pink.svg"
   xmlns:inkscape="http://www.inkscape.org/namespaces/inkscape"
   xmlns:sodipodi="http://sodipodi.sourceforge.net/DTD/sodipodi-0.dtd"
   xmlns="http://www.w3.org/2000/svg"
   xmlns:svg="http://www.w3.org/2000/svg">
  <sodipodi:namedview
     id="namedview1879"
     pagecolor="#ffffff"
     bordercolor="#666666"
     borderopacity="1.0"
     inkscape:pageshadow="2"
     inkscape:pageopacity="0.0"
     inkscape:pagecheckerboard="0"
     inkscape:document-units="mm"
     showgrid="false"
     fit-margin-top="0"
     fit-margin-left="0"
     fit-margin-right="0"
     fit-margin-bottom="0"
     inkscape:zoom="0.64052329"
     inkscape:cx="441.82625"
     inkscape:cy="455.09665"
     inkscape:window-width="1850"
     inkscape:window-height="1136"
     inkscape:window-x="0"
     inkscape:window-y="0"
     inkscape:window-maximized="1"
     inkscape:current-layer="layer1" />
  <defs
     id="defs1874" />
  <g
     inkscape:label="Warstwa 1"
     inkscape:groupmode="layer"
     id="layer1"
     transform="translate(179.88924,-27.886842)">
    <path
       style="fill:#e3007d;fill-opacity:1;fill-rule:nonzero;stroke:none;stroke-width:0.352778"
       d="m -175.9701,31.659909 c 0.0813,0 0.14745,0.06615 0.14745,0.146075 0,0.0813 -0.0661,0.146071 -0.14745,0.146071 -0.0827,0 -0.14607,-0.06339 -0.14607,-0.146071 0,-0.08131 0.0634,-0.146075 0.14607,-0.146075 m 0.25219,-0.453372 v -1.788696 c 0,-0.137802 -0.11301,-0.249425 -0.25219,-0.249425 -0.13918,0 -0.2508,0.111623 -0.2508,0.249425 v 1.788696 c -0.1571,0.06477 -0.28112,0.190169 -0.34726,0.347264 h -1.19338 c -0.13781,0 -0.25081,0.112998 -0.25081,0.252183 0,0.141937 0.11024,0.25218 0.25081,0.25218 h 1.19338 c 0.0978,0.234265 0.32935,0.39963 0.59806,0.39963 0.3583,0 0.65044,-0.292142 0.65044,-0.65181 0,-0.268718 -0.16399,-0.500228 -0.39825,-0.599447"
       id="path126" />
    <path
       style="fill:#e3007d;fill-opacity:1;fill-rule:nonzero;stroke:none;stroke-width:0.352778"
       d="m -175.9701,28.280962 c -1.94303,0 -3.52502,1.581986 -3.52502,3.525022 0,1.944409 1.58199,3.526399 3.52502,3.526399 1.94442,0 3.52641,-1.58199 3.52641,-3.526399 0,-1.943036 -1.58199,-3.525022 -3.52641,-3.525022 m 0,7.44554 c -2.16076,0 -3.91914,-1.758378 -3.91914,-3.920518 0,-2.160764 1.75838,-3.919142 3.91914,-3.919142 2.16215,0 3.92052,1.758378 3.92052,3.919142 0,2.16214 -1.75837,3.920518 -3.92052,3.920518"
       id="path128" />
  </g>
</svg>
