<?xml version="1.0" encoding="UTF-8" standalone="no"?>
<!-- Created with Inkscape (http://www.inkscape.org/) -->

<svg
   width="7.8410401mm"
   height="7.8396568mm"
   viewBox="0 0 7.8410401 7.8396568"
   version="1.1"
   id="svg1759"
   inkscape:version="1.1.2 (0a00cf5339, 2022-02-04)"
   sodipodi:docname="clock_mag.svg"
   xmlns:inkscape="http://www.inkscape.org/namespaces/inkscape"
   xmlns:sodipodi="http://sodipodi.sourceforge.net/DTD/sodipodi-0.dtd"
   xmlns="http://www.w3.org/2000/svg"
   xmlns:svg="http://www.w3.org/2000/svg">
  <sodipodi:namedview
     id="namedview1761"
     pagecolor="#ffffff"
     bordercolor="#666666"
     borderopacity="1.0"
     inkscape:pageshadow="2"
     inkscape:pageopacity="0.0"
     inkscape:pagecheckerboard="0"
     inkscape:document-units="mm"
     showgrid="false"
     fit-margin-top="0"
     fit-margin-left="0"
     fit-margin-right="0"
     fit-margin-bottom="0"
     inkscape:zoom="0.64052329"
     inkscape:cx="421.53034"
     inkscape:cy="434.80074"
     inkscape:window-width="1850"
     inkscape:window-height="1136"
     inkscape:window-x="0"
     inkscape:window-y="0"
     inkscape:window-maximized="1"
     inkscape:current-layer="layer1" />
  <defs
     id="defs1756" />
  <g
     inkscape:label="Warstwa 1"
     inkscape:groupmode="layer"
     id="layer1"
     transform="translate(174.51996,-33.256804)">
    <path
       style="fill:#33143d;fill-opacity:1;fill-rule:nonzero;stroke:none;stroke-width:0.352778"
       d="m -170.60082,37.031251 c 0.0813,0 0.14883,0.06477 0.14883,0.144692 0,0.0813 -0.0675,0.146071 -0.14883,0.146071 -0.0813,0 -0.1447,-0.06339 -0.1447,-0.146071 0,-0.0813 0.0634,-0.144692 0.1447,-0.144692 m 0.25356,-0.454755 v -1.787314 c 0,-0.139181 -0.11438,-0.250803 -0.25356,-0.250803 -0.1378,0 -0.24943,0.111622 -0.24943,0.250803 v 1.787314 c -0.15709,0.06615 -0.28249,0.191547 -0.34864,0.347267 h -1.192 c -0.1378,0 -0.25081,0.114378 -0.25081,0.25218 0,0.14194 0.11025,0.253559 0.25081,0.253559 h 1.192 c 0.0992,0.234265 0.32935,0.398254 0.59807,0.398254 0.35967,0 0.65181,-0.292146 0.65181,-0.651813 0,-0.268718 -0.16536,-0.500229 -0.39825,-0.599447"
       id="path114" />
    <path
       style="fill:#33143d;fill-opacity:1;fill-rule:nonzero;stroke:none;stroke-width:0.352778"
       d="m -170.59944,33.65092 c -1.94441,0 -3.52502,1.58199 -3.52502,3.526402 0,1.943033 1.58061,3.525023 3.52502,3.525023 1.94441,0 3.52502,-1.58199 3.52502,-3.525023 0,-1.944412 -1.58061,-3.526402 -3.52502,-3.526402 m 0,7.445541 c -2.16214,0 -3.92052,-1.758375 -3.92052,-3.919139 0,-2.162143 1.75838,-3.920518 3.92052,-3.920518 2.16076,0 3.92052,1.758375 3.92052,3.920518 0,2.160764 -1.75976,3.919139 -3.92052,3.919139"
       id="path116" />
  </g>
</svg>
