<?xml version="1.0" encoding="UTF-8" standalone="no"?>
<!-- Created with Inkscape (http://www.inkscape.org/) -->

<svg
   width="210mm"
   height="297mm"
   viewBox="0 0 210 297"
   version="1.1"
   id="svg356"
   inkscape:version="1.1.2 (0a00cf5339, 2022-02-04)"
   sodipodi:docname="email_mag.svg"
   xmlns:inkscape="http://www.inkscape.org/namespaces/inkscape"
   xmlns:sodipodi="http://sodipodi.sourceforge.net/DTD/sodipodi-0.dtd"
   xmlns="http://www.w3.org/2000/svg"
   xmlns:svg="http://www.w3.org/2000/svg">
  <sodipodi:namedview
     id="namedview358"
     pagecolor="#ffffff"
     bordercolor="#666666"
     borderopacity="1.0"
     inkscape:pageshadow="2"
     inkscape:pageopacity="0.0"
     inkscape:pagecheckerboard="0"
     inkscape:document-units="mm"
     showgrid="false"
     inkscape:zoom="0.64052329"
     inkscape:cx="397.33138"
     inkscape:cy="561.25984"
     inkscape:window-width="1850"
     inkscape:window-height="1136"
     inkscape:window-x="0"
     inkscape:window-y="0"
     inkscape:window-maximized="1"
     inkscape:current-layer="layer1" />
  <defs
     id="defs353" />
  <g
     inkscape:label="Warstwa 1"
     inkscape:groupmode="layer"
     id="layer1">
    <path
       style="fill:#33143d;fill-opacity:1;fill-rule:nonzero;stroke:none;stroke-width:14.7611"
       d="M 138.00136,149.31572 199.47926,35.718637 V 262.99393 Z M 19.445655,22.089808 H 191.20892 L 105.32714,180.8976 Z M 101.70137,203.17607 c 1.95716,3.51173 5.21485,3.58871 7.21104,-0.0591 l 21.26682,-39.33502 61.02969,112.86276 H 19.445655 L 80.434546,163.78191 Z M 11.175324,262.99393 V 35.718637 L 72.61241,149.39685 Z M 209.25706,5.9317012 c -0.1773,-0.473758 -0.32521,-0.9771258 -0.61198,-1.6344648 l -0.44936,-0.8172325 c -0.32521,-0.5921972 -0.69181,-1.0600333 -1.0998,-1.4686493 L 206.64654,1.5375965 C 205.99316,1.0638387 205.38413,0.80327184 204.73076,0.80327184 H 5.8750274 c -0.6504159,0 -1.2210078,0.23687896 -1.8329898,0.73432466 L 3.4714455,2.0113546 c -0.4079881,0.414538 -0.7331959,0.90014 -1.141184,1.551557 L 2.0050537,4.2143287 C 1.6384559,5.0315612 1.3132479,5.9257792 1.2718579,6.3343953 L 0.70126588,9.0288934 V 9.3842118 C 0.61257283,9.9764093 0.58300847,10.687046 0.58300847,11.504279 V 287.25507 c 0,0.81724 0.0295644,1.55156 0.11825741,2.12006 v 0.47377 l 0.20695045,1.22584 c 0.23651477,1.30875 0.61198207,2.44577 1.09979377,3.34591 l 0.325208,0.65142 c 0.3252079,0.65142 0.7745859,1.22585 1.182574,1.62854 l 0.4878119,0.41455 c 0.653372,0.47375 1.2623977,0.73432 1.8743798,0.73432 H 204.73373 c 0.6504,0 1.30378,-0.23689 1.91576,-0.73432 l 0.3666,-0.29611 c 0.48782,-0.41453 0.89581,-0.97712 1.26241,-1.62854 l 0.36658,-0.73432 c 0.29566,-0.59219 0.48781,-1.22585 0.65042,-1.87727 0.5292,-1.71144 0.77459,-3.51173 0.77459,-5.30609 V 11.522045 c 0,-1.960174 -0.29564,-3.754532 -0.81598,-5.5488899"
       id="path108" />
  </g>
</svg>
