<?xml version="1.0" encoding="UTF-8" standalone="no"?>
<!-- Created with Inkscape (http://www.inkscape.org/) -->

<svg
   width="7.0871801mm"
   height="5.016027mm"
   viewBox="0 0 7.0871801 5.016027"
   version="1.1"
   id="svg1260"
   inkscape:version="1.1.2 (0a00cf5339, 2022-02-04)"
   sodipodi:docname="email_pink.svg"
   xmlns:inkscape="http://www.inkscape.org/namespaces/inkscape"
   xmlns:sodipodi="http://sodipodi.sourceforge.net/DTD/sodipodi-0.dtd"
   xmlns="http://www.w3.org/2000/svg"
   xmlns:svg="http://www.w3.org/2000/svg">
  <sodipodi:namedview
     id="namedview1262"
     pagecolor="#ffffff"
     bordercolor="#666666"
     borderopacity="1.0"
     inkscape:pageshadow="2"
     inkscape:pageopacity="0.0"
     inkscape:pagecheckerboard="0"
     inkscape:document-units="mm"
     showgrid="false"
     fit-margin-top="0"
     fit-margin-left="0"
     fit-margin-right="0"
     fit-margin-bottom="0"
     inkscape:zoom="0.64052329"
     inkscape:cx="199.83661"
     inkscape:cy="256.82126"
     inkscape:window-width="1850"
     inkscape:window-height="1136"
     inkscape:window-x="0"
     inkscape:window-y="0"
     inkscape:window-maximized="1"
     inkscape:current-layer="layer1" />
  <defs
     id="defs1257" />
  <g
     inkscape:label="Warstwa 1"
     inkscape:groupmode="layer"
     id="layer1"
     transform="translate(115.48688,-80.519808)">
    <path
       style="fill:#e3007d;fill-opacity:1;fill-rule:nonzero;stroke:none;stroke-width:0.352778"
       d="m -110.83848,83.027821 2.07946,-1.919605 v 3.839214 z m -4.01009,-2.14836 h 5.8098 l -2.9049,2.680282 z m 2.78363,3.056488 c 0.0662,0.06064 0.17501,0.06201 0.24254,0 l 0.71933,-0.664214 2.0643,1.905826 h -5.8098 l 2.06292,-1.905826 z m -3.062,1.010101 v -3.836458 l 2.07809,1.918229 z m 6.69865,-4.339442 c -0.006,-0.0096 -0.011,-0.01792 -0.0193,-0.02755 l -0.0152,-0.01379 c -0.011,-0.01101 -0.0234,-0.0193 -0.0372,-0.02618 l -0.0165,-0.0069 c -0.0221,-0.0083 -0.0427,-0.01238 -0.0634,-0.01238 h -6.72759 c -0.0207,0 -0.0413,0.0041 -0.0606,0.01101 l -0.0207,0.0096 c -0.0124,0.0069 -0.0248,0.01517 -0.0386,0.02618 l -0.01,0.01101 c -0.0138,0.01242 -0.0248,0.02893 -0.0262,0.03583 l -0.0193,0.04548 v 0.0055 c -0.001,0.0097 -0.004,0.02205 -0.004,0.03447 v 4.657767 c 0,0.01379 0.003,0.02618 0.004,0.03583 v 0.0083 l 0.007,0.02067 c 0.01,0.02067 0.022,0.03996 0.0372,0.0565 l 0.011,0.01101 c 0.0124,0.01101 0.0262,0.02067 0.0413,0.02755 l 0.0152,0.0069 c 0.022,0.0083 0.0427,0.01242 0.0634,0.01242 h 6.72758 c 0.0207,0 0.0427,-0.0041 0.0634,-0.01242 l 0.0138,-0.0055 c 0.0152,-0.0083 0.0289,-0.01792 0.0413,-0.02755 l 0.0124,-0.01242 c 0.01,-0.01101 0.0179,-0.02205 0.0234,-0.03168 0.0165,-0.02893 0.0262,-0.05926 0.0262,-0.08957 v -4.657718 c 0,-0.03168 -0.01,-0.06339 -0.0289,-0.09233"
       id="path120" />
  </g>
</svg>
