<?xml version="1.0" encoding="UTF-8" standalone="no"?>
<!-- Created with Inkscape (http://www.inkscape.org/) -->

<svg
   width="7.0858998mm"
   height="5.016005mm"
   viewBox="0 0 7.0858998 5.016005"
   version="1.1"
   id="svg1113"
   inkscape:version="1.1.2 (0a00cf5339, 2022-02-04)"
   sodipodi:docname="email_mag.svg"
   xmlns:inkscape="http://www.inkscape.org/namespaces/inkscape"
   xmlns:sodipodi="http://sodipodi.sourceforge.net/DTD/sodipodi-0.dtd"
   xmlns="http://www.w3.org/2000/svg"
   xmlns:svg="http://www.w3.org/2000/svg">
  <sodipodi:namedview
     id="namedview1115"
     pagecolor="#ffffff"
     bordercolor="#666666"
     borderopacity="1.0"
     inkscape:pageshadow="2"
     inkscape:pageopacity="0.0"
     inkscape:pagecheckerboard="0"
     inkscape:document-units="mm"
     showgrid="false"
     fit-margin-top="0"
     fit-margin-left="0"
     fit-margin-right="0"
     fit-margin-bottom="0"
     inkscape:zoom="0.64052329"
     inkscape:cx="423.09156"
     inkscape:cy="612.78022"
     inkscape:window-width="1850"
     inkscape:window-height="1136"
     inkscape:window-x="0"
     inkscape:window-y="0"
     inkscape:window-maximized="1"
     inkscape:current-layer="layer1" />
  <defs
     id="defs1110" />
  <g
     inkscape:label="Warstwa 1"
     inkscape:groupmode="layer"
     id="layer1"
     transform="translate(174.55541,13.661009)">
    <path
       style="fill:#33143d;fill-opacity:1;fill-rule:nonzero;stroke:none;stroke-width:0.352778"
       d="m -169.9073,-11.152937 2.07946,-1.918229 v 3.8378342 z m -4.01009,-2.148363 h 5.80981 l -2.90491,2.681664 z m 2.78226,3.057867 c 0.0661,0.05926 0.17639,0.06063 0.24391,-0.0014 l 0.71934,-0.664218 2.0643,1.9058295 h -5.80981 l 2.06292,-1.9058295 z m -3.062,1.0101012 v -3.8378342 l 2.07808,1.919605 z m 6.70002,-4.3408172 c -0.006,-0.0083 -0.011,-0.01655 -0.0207,-0.02755 l -0.0152,-0.01379 c -0.011,-0.0096 -0.0234,-0.01792 -0.0372,-0.0248 l -0.0152,-0.0083 c -0.0221,-0.0083 -0.0427,-0.01242 -0.0648,-0.01242 h -6.7262 c -0.022,0 -0.0413,0.0041 -0.062,0.01242 l -0.0193,0.0083 c -0.0138,0.0069 -0.0248,0.01517 -0.0386,0.02618 l -0.011,0.01101 c -0.0124,0.01379 -0.0234,0.02893 -0.0248,0.03583 l -0.0193,0.04547 v 0.0055 c -0.003,0.0096 -0.004,0.02205 -0.004,0.03583 v 4.6563911 c 0,0.013794 0.001,0.026176 0.004,0.035828 v 0.00825 l 0.007,0.020673 c 0.008,0.022049 0.0207,0.041342 0.0372,0.056501 l 0.011,0.011007 c 0.011,0.011007 0.0262,0.020673 0.04,0.027552 l 0.0165,0.00688 c 0.0221,0.00826 0.0427,0.012383 0.0634,0.012383 h 6.7262 c 0.0221,0 0.0441,-0.00413 0.0648,-0.012383 l 0.0124,-0.0055 c 0.0165,-0.00688 0.0303,-0.016545 0.0427,-0.027552 l 0.0124,-0.012418 c 0.01,-0.00963 0.0165,-0.020673 0.0221,-0.031679 0.0179,-0.028928 0.0262,-0.059256 0.0262,-0.089574 v -4.6563911 c 0,-0.03305 -0.01,-0.06339 -0.0276,-0.0937"
       id="path108" />
  </g>
</svg>
