<?xml version="1.0" encoding="UTF-8" standalone="no"?>
<!-- Created with Inkscape (http://www.inkscape.org/) -->

<svg
   width="2.9972301mm"
   height="7.8520637mm"
   viewBox="0 0 2.9972301 7.8520637"
   version="1.1"
   id="svg1565"
   inkscape:version="1.1.2 (0a00cf5339, 2022-02-04)"
   sodipodi:docname="info_pink.svg"
   xmlns:inkscape="http://www.inkscape.org/namespaces/inkscape"
   xmlns:sodipodi="http://sodipodi.sourceforge.net/DTD/sodipodi-0.dtd"
   xmlns="http://www.w3.org/2000/svg"
   xmlns:svg="http://www.w3.org/2000/svg">
  <sodipodi:namedview
     id="namedview1567"
     pagecolor="#ffffff"
     bordercolor="#666666"
     borderopacity="1.0"
     inkscape:pageshadow="2"
     inkscape:pageopacity="0.0"
     inkscape:pagecheckerboard="0"
     inkscape:document-units="mm"
     showgrid="false"
     fit-margin-top="0"
     fit-margin-left="0"
     fit-margin-right="0"
     fit-margin-bottom="0"
     inkscape:zoom="0.64052329"
     inkscape:cx="429.33646"
     inkscape:cy="526.91293"
     inkscape:window-width="1620"
     inkscape:window-height="970"
     inkscape:window-x="26"
     inkscape:window-y="23"
     inkscape:window-maximized="0"
     inkscape:current-layer="layer1" />
  <defs
     id="defs1562" />
  <g
     inkscape:label="Warstwa 1"
     inkscape:groupmode="layer"
     id="layer1"
     transform="translate(176.22879,-9.2923282)">
    <path
       style="fill:#e3007d;fill-opacity:1;fill-rule:nonzero;stroke:none;stroke-width:0.352778"
       d="m -175.52875,10.53532 c 0,-0.440973 0.35829,-0.7992609 0.79926,-0.7992609 0.43959,0 0.79788,0.3582879 0.79788,0.7992609 0,0.440972 -0.35829,0.800639 -0.79788,0.800639 -0.44097,0 -0.79926,-0.359667 -0.79926,-0.800639 m 0.79926,1.24437 c 0.68488,0 1.24299,-0.558108 1.24299,-1.24437 0,-0.6848832 -0.55811,-1.2429918 -1.24299,-1.2429918 -0.68764,0 -1.24712,0.5581086 -1.24712,1.2429918 0,0.686262 0.55948,1.24437 1.24712,1.24437"
       id="path122" />
    <path
       style="fill:#e3007d;fill-opacity:1;fill-rule:nonzero;stroke:none;stroke-width:0.352778"
       d="m -175.52875,12.800816 h 1.59714 v 3.89847 h -1.59714 z m 2.0767,3.89847 h -0.0345 v -3.89847 h 0.0345 c 0.12127,0 0.22049,-0.09922 0.22049,-0.221865 0,-0.121268 -0.0992,-0.220487 -0.22049,-0.220487 h -2.55626 c -0.12127,0 -0.22048,0.09922 -0.22048,0.220487 0,0.122646 0.0992,0.221865 0.22048,0.221865 h 0.0317 v 3.89847 h -0.0317 c -0.12127,0 -0.22048,0.100594 -0.22048,0.22462 0,0.121268 0.0992,0.220486 0.22048,0.220486 h 2.55626 c 0.12127,0 0.22049,-0.09922 0.22049,-0.220486 0,-0.124026 -0.0992,-0.22462 -0.22049,-0.22462"
       id="path124" />
  </g>
</svg>
