<?xml version="1.0" encoding="UTF-8" standalone="no"?>
<!-- Created with Inkscape (http://www.inkscape.org/) -->

<svg
   width="2.9972301mm"
   height="7.8520608mm"
   viewBox="0 0 2.9972301 7.8520608"
   version="1.1"
   id="svg1447"
   inkscape:version="1.1.2 (0a00cf5339, 2022-02-04)"
   sodipodi:docname="info_mag.svg"
   xmlns:inkscape="http://www.inkscape.org/namespaces/inkscape"
   xmlns:sodipodi="http://sodipodi.sourceforge.net/DTD/sodipodi-0.dtd"
   xmlns="http://www.w3.org/2000/svg"
   xmlns:svg="http://www.w3.org/2000/svg">
  <sodipodi:namedview
     id="namedview1449"
     pagecolor="#ffffff"
     bordercolor="#666666"
     borderopacity="1.0"
     inkscape:pageshadow="2"
     inkscape:pageopacity="0.0"
     inkscape:pagecheckerboard="0"
     inkscape:document-units="mm"
     showgrid="false"
     fit-margin-top="0"
     fit-margin-left="0"
     fit-margin-right="0"
     fit-margin-bottom="0"
     inkscape:zoom="0.64052329"
     inkscape:cx="546.42822"
     inkscape:cy="664.30059"
     inkscape:window-width="1850"
     inkscape:window-height="1136"
     inkscape:window-x="0"
     inkscape:window-y="0"
     inkscape:window-maximized="1"
     inkscape:current-layer="layer1" />
  <defs
     id="defs1444" />
  <g
     inkscape:label="Warstwa 1"
     inkscape:groupmode="layer"
     id="layer1"
     transform="translate(207.20932,27.05816)">
    <path
       style="fill:#33143d;fill-opacity:1;fill-rule:nonzero;stroke:none;stroke-width:0.352778"
       d="m -206.51066,-25.815168 c 0,-0.439597 0.35967,-0.797885 0.79926,-0.797885 0.44098,0 0.79927,0.358288 0.79927,0.797885 0,0.442348 -0.35829,0.800639 -0.79927,0.800639 -0.43959,0 -0.79926,-0.358291 -0.79926,-0.800639 m 0.79926,1.245746 c 0.68627,0 1.24437,-0.558105 1.24437,-1.245746 0,-0.684887 -0.5581,-1.242992 -1.24437,-1.242992 -0.68626,0 -1.24574,0.558105 -1.24574,1.242992 0,0.687641 0.55948,1.245746 1.24574,1.245746"
       id="path110" />
    <path
       style="fill:#33143d;fill-opacity:1;fill-rule:nonzero;stroke:none;stroke-width:0.352778"
       d="m -206.51066,-23.548296 h 1.59853 v 3.89847 h -1.59853 z m 2.07808,3.89847 h -0.0344 v -3.89847 h 0.0344 c 0.12127,0 0.22049,-0.100598 0.22049,-0.223241 0,-0.121268 -0.0992,-0.220486 -0.22049,-0.220486 h -2.55626 c -0.12264,0 -0.22048,0.09922 -0.22048,0.220486 0,0.122643 0.0978,0.223241 0.22048,0.223241 h 0.0317 v 3.89847 h -0.0317 c -0.12264,0 -0.22048,0.09922 -0.22048,0.223241 0,0.121267 0.0978,0.220486 0.22048,0.220486 h 2.55626 c 0.12127,0 0.22049,-0.09922 0.22049,-0.220486 0,-0.124023 -0.0992,-0.223241 -0.22049,-0.223241"
       id="path112" />
  </g>
</svg>
