<svg viewBox="0 0 138 138" xmlns="http://www.w3.org/2000/svg" focusable="false" class="logo">
<style>
.logo {
  .s0 {
    fill: var(--orange, transparent);
  }
  .s1 {
    fill: var(--violet-600, #13100d);
  }
  .s2 {
    fill: var(--violet-400, #442563);
  }
  .s3 {
    fill: var(--white, #fff);
  }
}
</style>
  <path class="s0" d="m 138.64,69.37 c 0,38.11 -30.89,69.01 -69,69.01 -38.11,0 -69,-30.9 -69,-69.01 0,-38.11 30.89,-69 69,-69 38.11,0 69,30.89 69,69 z"></path>
  <path fill-rule="evenodd" class="s1" d="m 93.23,110.22 5.31,9.79 -2.05,1.11 q -0.67,0.36 -1.26,0.41 -0.59,0.05 -1.08,-0.12 -0.48,-0.18 -0.86,-0.56 -0.37,-0.38 -0.63,-0.86 l -0.19,-0.35 q -0.22,-0.41 -0.31,-0.71 -0.08,-0.31 -0.07,-0.58 0.02,-0.52 0.35,-1.05 -0.62,0.03 -1.09,-0.3 -0.48,-0.32 -0.91,-1.1 l -0.3,-0.56 q -0.7,-1.29 -0.44,-2.31 0.25,-1.03 1.62,-1.77 z m 1.06,5.29 -1.7,-3.13 -0.6,0.33 q -0.43,0.23 -0.6,0.48 -0.18,0.25 -0.18,0.54 0,0.29 0.13,0.61 0.14,0.31 0.33,0.67 0.2,0.37 0.39,0.63 0.19,0.25 0.42,0.37 0.24,0.12 0.52,0.08 0.28,-0.03 0.67,-0.24 z m 2.13,3.93 -1.46,-2.69 -0.63,0.34 q -0.71,0.38 -0.76,0.86 -0.05,0.48 0.32,1.16 0.36,0.65 0.8,0.84 0.45,0.18 1.15,-0.19 z"></path>
  <path class="s1" d="m 85.58,113.96 3.9,10.43 -1.5,0.55 -3.9,-10.42 z"></path>
  <path class="s1" d="m 80.91,115.57 2.52,10.84 -4.63,1.08 -0.34,-1.47 3.08,-0.71 -0.74,-3.18 -2.68,0.62 -0.34,-1.46 2.68,-0.62 -0.74,-3.19 -3.08,0.72 -0.36,-1.56 z"></path>
  <path class="s1" d="m 72.45,117.1 0.75,9.6 1.84,-0.15 0.12,1.5 -5.27,0.41 -0.12,-1.49 1.84,-0.15 -0.75,-9.6 z"></path>
   <path class="s1" d="m 71.97,20.7 1.43,-11.04 4.71,0.61 -0.19,1.49 -3.13,-0.41 -0.44,3.35 2.73,0.36 -0.19,1.48 -2.73,-0.35 -0.61,4.71 z"></path>
   <path class="s1" d="m 87.53,12.72 -2.5,8.27 q -0.16,0.52 -0.47,0.9 -0.33,0.39 -0.77,0.63 -0.45,0.24 -0.96,0.3 -0.51,0.06 -1.02,-0.1 -0.5,-0.15 -0.89,-0.48 -0.38,-0.32 -0.62,-0.77 -0.24,-0.45 -0.3,-0.95 -0.06,-0.5 0.09,-1.03 l 2.5,-8.26 1.53,0.46 -2.45,8.11 q -0.18,0.57 0.01,0.92 0.19,0.36 0.59,0.48 0.41,0.12 0.76,-0.07 0.35,-0.19 0.52,-0.76 L 86,12.26 Z"></path>
   <path class="s1" d="m 87.26,24.54 5.01,-9.94 1.37,0.69 -0.87,7.07 0.03,0.02 3.02,-5.99 1.42,0.72 -5.01,9.94 -1.34,-0.68 0.84,-7.07 -0.03,-0.02 -3.02,5.98 z"></path>
   <path fill-rule="evenodd" class="s1" d="m 94.87,28.7 6.68,-8.91 1.89,1.42 q 1.1,0.82 1.22,1.85 0.11,1.03 -0.71,2.13 l -3.12,4.17 q -0.94,1.25 -1.99,1.39 -1.05,0.14 -2.19,-0.71 z m 7.05,-6.76 -4.87,6.51 0.59,0.44 q 0.53,0.4 0.96,0.3 0.43,-0.1 0.86,-0.67 l 3.22,-4.3 q 0.39,-0.52 0.39,-0.97 0,-0.45 -0.56,-0.87 z"></path>
   <path fill-rule="evenodd" class="s1" d="m 100.78,33.32 9.79,-5.87 0.91,0.97 -6.35,9.47 -1.1,-1.16 1.41,-1.99 -1.5,-1.57 -2.06,1.31 z m 5.54,0.17 2.39,-3.35 -0.03,-0.02 -3.46,2.22 z"></path>
   <path class="s1" d="m 112.11,42.3 -0.57,0.39 q -0.43,0.29 -0.92,0.38 -0.5,0.09 -0.98,0.01 -0.5,-0.08 -0.93,-0.35 -0.43,-0.26 -0.73,-0.7 -0.25,-0.38 -0.41,-0.84 -0.16,-0.46 -0.11,-0.94 0.05,-0.49 0.32,-0.97 0.28,-0.47 0.91,-0.9 l 5.08,-3.42 q 0.46,-0.31 0.95,-0.41 0.5,-0.11 0.97,-0.02 0.48,0.09 0.91,0.38 0.43,0.29 0.75,0.77 0.63,0.93 0.42,1.92 -0.11,0.49 -0.41,0.93 -0.3,0.44 -0.78,0.76 l -0.52,0.35 -0.89,-1.33 0.44,-0.29 q 0.39,-0.27 0.53,-0.68 0.13,-0.41 -0.12,-0.79 -0.33,-0.49 -0.75,-0.45 -0.41,0.05 -0.88,0.36 l -4.72,3.18 q -0.4,0.27 -0.55,0.63 -0.16,0.36 0.15,0.81 0.09,0.13 0.23,0.25 0.15,0.12 0.34,0.18 0.18,0.05 0.42,0 0.23,-0.04 0.5,-0.23 l 0.46,-0.3 z"></path>
   <path class="s1" d="m 122.58,45.4 -7.71,3.6 q -1.03,0.49 -2.03,0.16 -0.49,-0.17 -0.9,-0.52 -0.41,-0.35 -0.68,-0.95 -0.33,-0.69 -0.24,-1.29 0.09,-0.61 0.26,-1.02 l 1.44,0.71 q -0.08,0.23 -0.09,0.49 -0.02,0.25 0.09,0.48 0.06,0.13 0.19,0.27 0.13,0.15 0.34,0.24 0.2,0.09 0.48,0.08 0.28,-0.01 0.67,-0.18 l 7.5,-3.52 z"></path>
   <path fill-rule="evenodd" class="s1" d="m 113.48,52.45 11.38,-0.72 0.37,1.27 -9.99,5.5 -0.45,-1.53 2.17,-1.12 -0.61,-2.09 -2.43,0.22 z m 4.84,2.69 3.66,-1.87 -0.01,-0.03 -4.09,0.37 z"></path>
   <path class="s1" d="m 119.5,70.76 -0.69,0.01 q -0.52,0.01 -0.98,-0.18 -0.47,-0.19 -0.83,-0.53 -0.37,-0.33 -0.59,-0.79 -0.22,-0.46 -0.22,-0.99 -0.01,-0.45 0.11,-0.92 0.11,-0.48 0.42,-0.85 0.31,-0.39 0.79,-0.64 0.49,-0.24 1.26,-0.26 l 6.13,-0.1 q 0.55,-0.01 1.02,0.17 0.47,0.18 0.82,0.52 0.35,0.34 0.55,0.81 0.2,0.48 0.21,1.06 0.02,1.12 -0.7,1.84 -0.36,0.34 -0.84,0.55 -0.49,0.2 -1.07,0.21 l -0.63,0.01 -0.02,-1.59 0.53,-0.01 q 0.47,-0.01 0.81,-0.28 0.34,-0.27 0.33,-0.72 -0.01,-0.6 -0.38,-0.79 -0.37,-0.19 -0.93,-0.18 l -5.69,0.09 q -0.49,0.01 -0.81,0.23 -0.33,0.22 -0.32,0.76 0,0.16 0.06,0.34 0.06,0.18 0.19,0.33 0.12,0.14 0.34,0.23 0.22,0.09 0.55,0.09 l 0.55,-0.01 z"></path>
   <path class="s1" d="m 116.14,73.34 1.39,0.2 7.73,4.13 0.4,-2.82 1.48,0.21 -0.64,4.54 -1.25,-0.18 -7.86,-4.21 -0.43,3.03 -1.48,-0.21 z"></path>
   <path fill-rule="evenodd" class="s1" d="m 115.1,80.03 9.91,5.64 -0.39,1.27 -11.37,-0.88 0.47,-1.53 2.42,0.25 0.64,-2.07 -2.15,-1.15 z m 2.57,4.9 4.08,0.44 0.01,-0.03 -3.63,-1.93 z"></path>
   <path class="s1" d="m 117.07,96.51 0.71,-1.43 0.32,0.16 q 0.49,0.24 0.96,0.19 0.47,-0.06 0.75,-0.6 0.14,-0.29 0.12,-0.53 -0.02,-0.24 -0.13,-0.44 -0.13,-0.2 -0.34,-0.35 -0.21,-0.16 -0.46,-0.29 -0.29,-0.14 -0.5,-0.22 -0.21,-0.08 -0.4,-0.07 -0.2,0.01 -0.39,0.11 -0.19,0.11 -0.44,0.33 l -0.98,0.88 q -0.42,0.38 -0.81,0.56 -0.39,0.17 -0.8,0.17 -0.41,-0.01 -0.87,-0.16 -0.45,-0.16 -1,-0.43 -0.63,-0.32 -1.1,-0.71 -0.48,-0.39 -0.72,-0.86 -0.24,-0.49 -0.23,-1.08 0.01,-0.59 0.35,-1.27 0.26,-0.52 0.67,-0.88 0.4,-0.35 0.88,-0.52 0.48,-0.16 1,-0.13 0.53,0.02 1.03,0.27 l 0.53,0.27 -0.71,1.42 -0.45,-0.22 q -0.39,-0.19 -0.82,-0.12 -0.43,0.07 -0.7,0.62 -0.18,0.36 -0.17,0.62 0,0.25 0.14,0.46 0.14,0.21 0.4,0.37 0.26,0.16 0.6,0.32 0.39,0.2 0.66,0.3 0.26,0.09 0.46,0.09 0.2,-0.03 0.38,-0.14 0.18,-0.11 0.42,-0.32 l 0.93,-0.81 q 0.84,-0.74 1.62,-0.74 0.78,-0.01 1.72,0.46 0.56,0.28 0.98,0.68 0.43,0.41 0.64,0.9 0.22,0.47 0.21,1.03 -0.01,0.57 -0.32,1.2 -0.27,0.53 -0.68,0.87 -0.42,0.34 -0.9,0.51 -0.99,0.31 -1.86,-0.13 z"></path>
   <path class="s1" d="m 105.62,99.35 8.27,7.45 -1.06,1.18 -3.78,-3.4 -0.02,0.03 2.22,5.13 -1.06,1.18 -1.87,-4.59 -6.69,-2.55 1.13,-1.25 4.89,1.95 -0.62,-1.72 -2.48,-2.22 z"></path>
   <path fill-rule="evenodd" class="s1" d="m 105.32,111.87 q 0.41,0.53 0.55,1.08 0.14,0.54 0.04,1.06 -0.09,0.49 -0.36,0.92 -0.27,0.43 -0.64,0.73 -0.38,0.3 -0.87,0.46 -0.48,0.16 -0.99,0.14 -0.5,-0.03 -1.01,-0.29 -0.5,-0.26 -0.92,-0.79 l -3.65,-4.61 q -0.43,-0.55 -0.56,-1.09 -0.12,-0.54 -0.03,-1.03 0.09,-0.51 0.36,-0.94 0.27,-0.43 0.64,-0.73 0.38,-0.3 0.87,-0.46 0.48,-0.17 0.99,-0.13 0.5,0.02 1,0.27 0.49,0.24 0.93,0.79 z m -4.9,-3.62 q -0.36,-0.46 -0.78,-0.47 -0.42,-0.02 -0.76,0.26 -0.35,0.27 -0.43,0.68 -0.08,0.41 0.28,0.87 l 3.65,4.61 q 0.35,0.45 0.78,0.47 0.42,0.02 0.76,-0.26 0.34,-0.27 0.42,-0.68 0.09,-0.41 -0.27,-0.87 z"></path>
   <path class="s2" d="m 107.95,74.02 c -2.8,22.11 -23,37.76 -45.11,34.95 -22.11,-2.8 -37.75,-23 -34.95,-45.11 2.81,-22.11 23,-37.76 45.11,-34.95 22.11,2.8 37.76,23 34.95,45.11 z"></path>
   <path class="s3" d="M 86.38,70.33 C 86.13,69.42 85.52,68.59 84.67,68 l -0.6,-0.42 c -0.81,-0.57 -1.75,-0.86 -2.69,-0.81 l -0.92,0.05 0.51,-0.77 c 0.5,-0.76 0.66,-1.69 0.44,-2.62 -0.23,-0.96 -0.82,-1.81 -1.67,-2.41 L 79.14,60.6 Q 78.25,59.98 77.12,59.87 L 76.47,59.81 83.35,45.1 c 0.44,-0.94 0.49,-2 0.14,-2.98 -0.35,-0.98 -1.07,-1.76 -2.02,-2.21 l -0.52,-0.24 q -1.11,-0.52 -2.79,0.26 c -0.79,0.38 -1.4,0.86 -1.4,0.86 l -7.18,12.05 q -0.08,0.15 0.01,0.3 0.09,0.14 0.26,0.14 L 74.58,53 64.67,63.96 68.65,55.77 Q 68.71,55.63 68.63,55.5 68.55,55.36 68.39,55.36 L 64.88,55.31 68.76,41.06 C 69.13,38.9 67.7,36.88 65.57,36.52 L 65,36.43 q -0.32,-0.06 -0.65,-0.06 c -1.87,0 -3.52,1.35 -3.84,3.26 L 55.87,66.98 C 55.73,67.87 55.55,69 55.54,69.9 v 0.32 l -0.31,0.11 q -1.58,0.54 -3.09,1.09 -0.08,0.02 -0.12,0.07 -2.21,2.5 -3.08,5.61 -0.69,2.49 -0.49,5.25 c 0.18,2.52 0.87,4.44 1.15,5.15 l 0.07,0.16 -1.31,4.17 c -0.64,2.05 0.51,4.25 2.57,4.89 l 19.59,6.12 c 0.99,0.31 2.04,0.21 2.97,-0.27 0.93,-0.49 1.6,-1.3 1.92,-2.29 l 0.9,-2.9 q 0.08,-0.27 0.13,-0.56 l 0.03,-0.18 0.15,-0.12 c 0.8,-0.59 3.58,-2.93 6.06,-8.39 1.52,-3.35 2.28,-7 2.65,-9.47 0.39,-2.59 0.44,-4.41 0.45,-4.61 Q 85.77,73.96 85.7,73.88 l -0.19,-0.27 0.51,-0.72 c 0.5,-0.72 0.63,-1.63 0.36,-2.56 z"></path>
   <path fill-rule="evenodd" class="s1" d="m 86.4,73.16 -0.32,0.45 q 0.15,0.2 0.16,0.45 c 0,0.08 -0.04,1.96 -0.45,4.67 -0.37,2.5 -1.14,6.19 -2.69,9.6 -2.49,5.49 -5.27,7.88 -6.2,8.57 q -0.05,0.31 -0.15,0.62 l -0.9,2.9 c -0.72,2.3 -3.18,3.58 -5.47,2.86 L 50.79,97.16 c -2.3,-0.71 -3.59,-3.17 -2.87,-5.47 l 1.25,-4.01 c -0.28,-0.71 -1,-2.7 -1.19,-5.29 q -0.2,-2.85 0.51,-5.41 0.9,-3.22 3.18,-5.8 0.12,-0.14 0.31,-0.2 1.52,-0.55 3.1,-1.09 c 0.01,-0.88 0.16,-1.97 0.34,-2.98 l 4.63,-27.36 c 0.4,-2.38 2.66,-3.98 5.03,-3.58 l 0.57,0.09 c 2.38,0.41 3.98,2.67 3.58,5.04 q -0.01,0.05 -0.02,0.1 l -0.2,0.63 -3.52,13.03 2.91,0.03 c 0.25,0.01 0.49,0.14 0.63,0.36 0.14,0.22 0.15,0.5 0.04,0.73 l -2.55,5.24 6.95,-7.69 -3.59,0.22 C 69.6,53.76 69.33,53.62 69.19,53.38 69.04,53.14 69.04,52.85 69.18,52.6 l 7.11,-11.97 q 0.07,-0.11 0.18,-0.2 c 0.02,-0.02 0.65,-0.52 1.49,-0.92 q 1.87,-0.88 3.19,-0.26 l 0.52,0.24 c 1.06,0.49 1.86,1.37 2.26,2.47 0.39,1.1 0.34,2.28 -0.16,3.34 l -6.6,14.11 c 0.78,0.07 1.55,0.33 2.23,0.81 l 0.6,0.42 c 0.95,0.66 1.61,1.61 1.86,2.68 0.25,1.07 0.07,2.12 -0.5,2.99 1.02,-0.06 2.07,0.26 2.98,0.89 l 0.6,0.42 c 0.93,0.65 1.61,1.57 1.89,2.59 0.31,1.06 0.15,2.11 -0.43,2.95 z m -6.53,-4.57 -5.92,8.46 -2.31,3.3 c -0.7,0.99 -0.21,2.53 1.08,3.43 l 0.6,0.42 c 0.65,0.46 1.4,0.68 2.1,0.63 0.65,-0.05 1.18,-0.32 1.5,-0.78 l 7.21,-10.28 1.03,-1.48 c 0.69,-0.99 0.2,-2.53 -1.09,-3.43 l -0.6,-0.42 q -0.48,-0.34 -0.99,-0.5 c -1.04,-0.32 -2.08,-0.1 -2.61,0.65 z m -1.33,-7.13 c -0.73,-0.51 -1.61,-0.7 -2.41,-0.51 -0.57,0.13 -1.03,0.44 -1.35,0.88 l -3.31,4.73 q 0.12,0.07 0.23,0.15 0.12,0.07 0.24,0.15 0.49,0.31 0.87,0.67 c 0.81,0.79 1.2,1.71 1.12,2.68 q -0.04,0.52 -0.26,1.04 c -0.04,0.11 -0.13,0.22 -0.18,0.32 -0.12,0.25 -0.24,0.49 -0.42,0.73 -0.1,0.14 -0.25,0.27 -0.37,0.41 -0.19,0.21 -0.36,0.43 -0.59,0.64 -0.16,0.15 -0.37,0.3 -0.55,0.45 -0.24,0.19 -0.46,0.4 -0.73,0.59 -1.63,1.5 -3.54,2.34 -5.08,3.02 q -0.01,0.01 -0.01,0.01 0.13,0.14 0.33,0.37 0.27,0.32 0.62,0.57 l 0.61,0.42 c 0.68,0.48 1.5,0.67 2.26,0.54 0.62,-0.11 1.15,-0.44 1.49,-0.92 l 1.54,-2.2 7.48,-10.66 c 0.37,-0.53 0.48,-1.19 0.32,-1.87 -0.17,-0.71 -0.61,-1.35 -1.25,-1.79 z m -21.93,7.91 q 0.08,-0.03 0.17,-0.05 c 3.05,-1.01 3.6,-1.2 5.49,-1.72 q 0.02,-0.01 0.04,-0.01 c 0.09,-0.02 0.51,-0.14 0.93,-0.26 q 0.02,-0.01 0.04,-0.01 0.01,-0.01 0.03,-0.01 0.02,-0.01 0.05,-0.01 0.06,-0.02 0.11,-0.04 0.32,-0.09 0.59,-0.16 0.02,-0.01 0.04,-0.01 0.04,-0.02 0.06,-0.02 0.03,-0.01 0.05,-0.02 2.19,-0.61 3.71,-0.87 0.58,-0.1 1,-0.13 0.08,-0.01 0.15,-0.02 0.39,-0.03 0.67,-0.02 0.05,0 0.1,0 0.09,0 0.17,0.01 l 3.54,-5.05 q 0.31,-0.44 0.74,-0.77 0.06,-0.05 0.13,-0.1 0.42,-0.3 0.91,-0.48 0.05,-0.02 0.09,-0.04 L 82.4,44.66 c 0.33,-0.69 0.36,-1.47 0.1,-2.18 -0.26,-0.72 -0.78,-1.3 -1.47,-1.62 L 80.5,40.62 c -0.88,-0.42 -2.39,0.47 -2.99,0.91 l -6.3,10.62 4.01,-0.24 c 0.31,-0.02 0.6,0.15 0.73,0.43 0.14,0.28 0.09,0.61 -0.12,0.83 L 64.07,66.18 c -0.25,0.28 -0.67,0.33 -0.98,0.12 -0.32,-0.21 -0.42,-0.62 -0.26,-0.96 l 4.35,-8.95 -2.68,-0.04 c -0.24,0 -0.46,-0.11 -0.6,-0.29 -0.14,-0.19 -0.19,-0.43 -0.12,-0.66 l 3.78,-13.98 q 0,-0.01 0,-0.02 l 0.19,-0.6 c 0.21,-1.4 -0.65,-2.74 -1.97,-3.15 q -0.19,-0.06 -0.38,-0.1 l -0.57,-0.09 c -1.55,-0.26 -3.03,0.79 -3.3,2.34 l -4.62,27.36 c -0.13,0.71 -0.25,1.52 -0.3,2.21 z m 28.01,6.32 -6.46,9.23 c -0.59,0.83 -1.52,1.33 -2.63,1.42 q -0.4,0.02 -0.81,-0.02 -0.14,-0.03 -0.28,-0.06 -0.27,-0.04 -0.54,-0.12 -0.02,0 -0.04,0 -0.23,-0.09 -0.45,-0.19 -0.13,-0.04 -0.25,-0.09 -0.36,-0.18 -0.7,-0.42 l -0.61,-0.42 c -0.93,-0.65 -1.6,-1.57 -1.89,-2.59 q -0.11,-0.41 -0.14,-0.81 0,-0.13 0.01,-0.26 -0.01,-0.27 0.03,-0.52 0,-0.02 0,-0.04 -0.02,0.01 -0.04,0.01 -0.48,0.08 -0.97,0.05 -0.15,-0.02 -0.31,-0.04 -0.33,-0.04 -0.66,-0.13 -0.07,-0.01 -0.14,-0.03 -0.18,-0.06 -0.34,-0.13 -0.13,-0.05 -0.25,-0.1 -0.37,-0.17 -0.72,-0.41 l -0.6,-0.42 q -0.52,-0.37 -0.92,-0.84 -0.16,-0.19 -0.29,-0.32 -0.27,-0.26 -0.43,-0.57 c -2.95,1.08 -7.34,2.62 -7.6,2.71 l -0.5,-1.42 c 2.44,-0.86 8.76,-3.1 9.91,-3.58 1.24,-0.64 2.64,-1.43 3.89,-2.38 q 0.01,0 0.02,-0.01 C 71.48,72.07 72.35,71 72.42,70.1 q 0.06,-0.77 -0.67,-1.49 c -0.42,-0.4 -1.02,-0.78 -1.69,-1.05 -0.02,-0.01 -0.14,-0.05 -0.54,-0.04 q -0.01,0 -0.01,0 -0.19,0 -0.47,0.03 -0.13,0.02 -0.27,0.04 -0.19,0.02 -0.43,0.06 -0.18,0.03 -0.37,0.06 c -0.18,0.04 -0.36,0.06 -0.58,0.11 -0.13,0.03 -0.31,0.07 -0.46,0.11 -0.25,0.05 -0.48,0.1 -0.76,0.17 -0.16,0.04 -0.37,0.1 -0.54,0.14 -0.32,0.08 -0.63,0.16 -0.99,0.26 q -0.02,0.01 -0.04,0.01 -0.01,0.01 -0.04,0.01 l -0.02,0.01 q -0.03,0.01 -0.08,0.02 -0.05,0.02 -0.1,0.03 -0.02,0.01 -0.04,0.02 -0.29,0.08 -0.67,0.18 0,0.01 0,0.01 c -1.74,0.5 -4.58,1.37 -7.21,2.24 q -1.94,0.65 -3.77,1.3 -1.95,2.27 -2.73,5.05 -0.63,2.32 -0.45,4.9 c 0.21,2.93 1.16,5.02 1.17,5.04 q 0.12,0.27 0.04,0.54 l -1.34,4.28 c -0.47,1.51 0.37,3.11 1.87,3.58 l 19.6,6.12 c 1.5,0.47 3.1,-0.37 3.58,-1.88 l 0.9,-2.89 q 0.1,-0.32 0.12,-0.65 c 0.02,-0.25 0.15,-0.47 0.36,-0.59 0.01,-0.01 0.8,-0.5 1.91,-1.75 1.04,-1.14 2.58,-3.19 4.02,-6.38 2.02,-4.44 2.69,-9.47 2.9,-12.01 z"></path>
</svg>