
<svg
   viewBox="0 0 250 91"
   xmlns="http://www.w3.org/2000/svg"
   >
  <style
     id="style182">
		.s0 { fill: #ffffff } 
		.s1 { fill: #3a1341 } 
	</style>
  <path
      class="s0"
      d="m 96.07,0.51 h 28.03 c 7.11,0 10.59,5.1 10.59,15.43 V 89.96 H 124.64 V 10.57 h -4.3 V 89.96 H 110.29 V 10.57 h -4.16 V 89.96 H 96.07 Z" />
  <path
      fill-rule="evenodd"
      class="s0"
      d="m 142.07,15.13 c 0,-4.83 1.07,-8.58 3.22,-11.13 2.01,-2.55 5.1,-3.89 8.98,-3.89 3.89,0 6.84,1.34 8.99,3.89 2.01,2.55 3.08,6.3 3.08,11.13 v 60.35 c 0,4.69 -1.07,8.45 -3.08,11 -2.15,2.54 -5.1,3.88 -8.99,3.88 -3.88,0 -6.97,-1.34 -8.98,-3.88 -2.15,-2.55 -3.22,-6.31 -3.22,-11 z M 156.29,79.9 V 10.57 h -4.16 V 79.9 Z" />
  <path
      class="s0"
      d="m 197.99,55.9 v 19.58 c 0,4.69 -1.07,8.45 -3.08,11 -2.15,2.54 -5.1,3.88 -8.99,3.88 -3.89,0 -6.97,-1.34 -8.98,-3.88 -2.15,-2.55 -3.22,-6.31 -3.22,-11 V 15.13 c 0,-4.83 1.07,-8.58 3.22,-11.13 2.01,-2.55 5.09,-3.89 8.98,-3.89 3.89,0 6.84,1.34 8.99,3.89 2.01,2.55 3.08,6.3 3.08,11.13 V 33.91 H 187.93 V 10.57 h -4.15 v 69.34 h 4.15 V 55.9 Z" />
  <path
      class="s0"
      d="M 215.02,0.51 V 39 h 4.29 V 0.51 h 10.06 v 34.2 q 0,5.83 -1.61,8.85 c -1.07,2.01 -2.95,3.76 -5.63,5.1 v 41.3 h -10.06 v -41.3 c -2.68,-1.48 -4.56,-3.22 -5.5,-5.23 -1.07,-2.01 -1.61,-4.96 -1.61,-8.72 V 0.51 Z" />
  <path
      class="s0"
      d="m 246.94,80.84 c 0.94,1.08 1.47,2.42 1.47,4.03 0,1.61 -0.53,2.95 -1.47,3.89 q -1.61,1.61 -4.02,1.6 c -1.61,0 -2.95,-0.53 -3.89,-1.6 -1.08,-0.94 -1.61,-2.28 -1.61,-3.89 q 0,-2.42 1.61,-4.03 c 0.94,-1.07 2.28,-1.61 3.89,-1.61 q 2.41,0 4.02,1.61 z m -0.27,-5.23 h -7.64 l -1.34,-75.1 h 10.32 z" />
  <path
      fill-rule="evenodd"
      class="s1"
      d="m 64.14,15.13 c 0,-4.83 1.07,-8.58 3.22,-11.13 2.01,-2.55 5.09,-3.89 8.98,-3.89 3.89,0 6.84,1.34 8.99,3.89 2.01,2.55 3.08,6.3 3.08,11.13 v 60.35 c 0,4.69 -1.07,8.45 -3.08,11 -2.15,2.54 -5.1,3.88 -8.99,3.88 -3.89,0 -6.97,-1.34 -8.98,-3.88 -2.15,-2.55 -3.22,-6.31 -3.22,-11 z M 78.35,79.9 V 10.57 H 74.2 V 79.9 Z" />
  <path
      fill-rule="evenodd"
      class="s1"
      d="m 35.33,0.51 h 13.68 q 5.83,0.01 8.45,4.43 c 1.47,2.55 2.14,6.17 2.14,11 v 17.83 c 0,5.37 -0.8,9.26 -2.55,11.67 q -2.61,3.62 -8.04,3.62 h -3.62 v 40.9 H 35.33 Z M 49.54,39 V 10.57 H 45.39 V 39 Z" />
  <path
      class="s0"
      d="m 17.76,0.48 c 1.57,0 2.87,-0.03 4.13,-0.12 V 2.78 L 19.43,2.91 V 3 c 1.45,0.85 2.8,2.27 2.8,4.79 0,2.08 -1.26,3.66 -3.05,4.32 v 0.06 c 0.85,0.48 1.51,1.07 1.98,1.7 0.69,0.92 1.07,1.93 1.07,3.38 0,2.01 -1.32,5.01 -6.61,5.01 H 6.64 v -2.71 h 8.63 c 2.93,0 4.69,-1.08 4.69,-3.31 0,-1.58 -1.16,-2.81 -2.52,-3.28 -0.38,-0.13 -0.88,-0.22 -1.38,-0.22 H 6.64 v -2.71 h 9.13 c 2.43,0 4.19,-1.07 4.19,-3.18 0,-1.74 -1.38,-3 -2.77,-3.44 C 16.78,3.26 16.31,3.19 15.84,3.19 H 6.64 V 0.48 Z" />
  <path
      fill-rule="evenodd"
      class="s0"
      d="m 6.64,35.21 1.92,-0.22 v -0.1 C 7.36,34.04 6.29,32.4 6.29,30.23 c 0,-3.09 2.17,-4.66 4.38,-4.66 3.69,0 5.7,3.27 5.67,9.16 h 0.31 c 1.27,0 3.53,-0.34 3.53,-3.46 0,-1.42 -0.44,-2.9 -1.13,-3.97 l 1.83,-0.63 c 0.82,1.26 1.35,3.09 1.35,5.01 0,4.66 -3.18,5.8 -6.24,5.8 h -5.7 c -1.32,0 -2.61,0.06 -3.65,0.25 z m 7.78,-0.41 c 0.06,-3.03 -0.47,-6.46 -3.44,-6.46 -1.79,0 -2.64,1.2 -2.64,2.61 0,1.99 1.26,3.25 2.55,3.69 0.28,0.1 0.6,0.16 0.88,0.16 z" />
  <path
      fill-rule="evenodd"
      class="s0"
      d="m 16.91,41.95 c 1.95,0 3.53,-0.06 4.98,-0.12 v 2.48 l -2.62,0.13 v 0.06 c 1.86,1.14 2.96,2.93 2.96,5.42 0,3.69 -3.12,6.46 -7.75,6.46 -5.48,0 -8.19,-3.34 -8.19,-6.93 0,-2.02 0.88,-3.78 2.39,-4.69 V 44.69 H 0.4 v -2.74 z m -4.07,2.74 q -0.61,0.02 -1.13,0.13 c -1.92,0.5 -3.25,2.17 -3.25,4.16 0,2.93 2.4,4.63 5.89,4.63 3.06,0 5.68,-1.61 5.68,-4.54 0,-1.89 -1.36,-3.65 -3.44,-4.19 -0.34,-0.09 -0.75,-0.19 -1.13,-0.19 z" />
  <path
      fill-rule="evenodd"
      class="s0"
      d="m 6.64,68.33 1.92,-0.22 v -0.1 c -1.2,-0.85 -2.27,-2.49 -2.27,-4.66 0,-3.09 2.17,-4.67 4.38,-4.67 3.69,0 5.7,3.28 5.67,9.17 h 0.31 c 1.27,0 3.53,-0.34 3.53,-3.46 0,-1.42 -0.44,-2.9 -1.13,-3.97 l 1.83,-0.63 c 0.82,1.26 1.35,3.08 1.35,5.01 0,4.66 -3.18,5.79 -6.24,5.79 h -5.7 c -1.32,0 -2.61,0.07 -3.65,0.26 z m 7.78,-0.41 c 0.06,-3.03 -0.47,-6.46 -3.44,-6.46 -1.79,0 -2.64,1.2 -2.64,2.61 0,1.99 1.26,3.25 2.55,3.69 0.28,0.09 0.6,0.16 0.88,0.16 z" />
</svg>
