<?xml version="1.0" encoding="UTF-8" standalone="no"?>
<!-- Created with Inkscape (http://www.inkscape.org/) -->

<svg
   width="7.828629mm"
   height="6.1842794mm"
   viewBox="0 0 7.828629 6.1842794"
   version="1.1"
   id="svg478"
   inkscape:version="1.1.2 (0a00cf5339, 2022-02-04)"
   sodipodi:docname="nocleg-glyph_pink.svg"
   xmlns:inkscape="http://www.inkscape.org/namespaces/inkscape"
   xmlns:sodipodi="http://sodipodi.sourceforge.net/DTD/sodipodi-0.dtd"
   xmlns="http://www.w3.org/2000/svg"
   xmlns:svg="http://www.w3.org/2000/svg">
  <sodipodi:namedview
     id="namedview480"
     pagecolor="#ffffff"
     bordercolor="#666666"
     borderopacity="1.0"
     inkscape:pageshadow="2"
     inkscape:pageopacity="0.0"
     inkscape:pagecheckerboard="0"
     inkscape:document-units="mm"
     showgrid="false"
     fit-margin-top="0"
     fit-margin-left="0"
     fit-margin-right="0"
     fit-margin-bottom="0"
     inkscape:zoom="0.64052329"
     inkscape:cx="-583.89758"
     inkscape:cy="-58.545881"
     inkscape:window-width="1850"
     inkscape:window-height="1136"
     inkscape:window-x="0"
     inkscape:window-y="0"
     inkscape:window-maximized="1"
     inkscape:current-layer="layer1" />
  <defs
     id="defs475" />
  <g
     inkscape:label="Warstwa 1"
     inkscape:groupmode="layer"
     id="layer1"
     transform="translate(-91.499775,-163.78911)">
    <path
       style="display:inline;fill:#e3007d;fill-opacity:1;fill-rule:nonzero;stroke:none;stroke-width:0.352778"
       d="m 92.21307,167.55003 -0.007,-0.6339 c 0,-0.0372 0.0303,-0.0689 0.0661,-0.0689 l 6.237,-0.073 c 0.0372,-10e-4 0.0689,0.0303 0.0703,0.0661 l 0.007,0.63528 z m 0.0124,1.63435 0.004,0.3514 -0.27698,0.003 -0.0179,-1.55305 6.9398,-0.0813 0.0193,1.55167 -0.27699,0.004 -0.004,-0.3514 c -0.001,-0.11851 -0.1006,-0.21497 -0.22049,-0.21359 l -5.95312,0.0703 c -0.11851,0.001 -0.21498,0.0992 -0.2136,0.2191 m 6.0427,-4.67706 0.0207,1.83693 -5.80705,0.0675 -0.0207,-1.83555 z m 0.81718,2.96141 -0.0675,0.001 -0.008,-0.6339 c -0.001,-0.19155 -0.11575,-0.36105 -0.28663,-0.44097 l -0.0289,-2.39228 c -10e-4,-0.11851 -0.0992,-0.21497 -0.21911,-0.21359 -0.11851,0.001 -0.21497,0.10059 -0.21359,0.21911 l 0.001,0.0675 -5.80705,0.0675 -0.001,-0.0661 c -10e-4,-0.1199 -0.0992,-0.21636 -0.21773,-0.21498 -0.11852,10e-4 -0.2136,0.1006 -0.21222,0.22049 l 0.0276,2.39089 c -0.17088,0.0827 -0.28112,0.25494 -0.27836,0.44787 l 0.007,0.63389 -0.0675,10e-4 c -0.11851,0.001 -0.21497,0.0992 -0.21359,0.21773 l 0.0234,1.98575 c 0.001,0.11851 0.0992,0.21498 0.21774,0.2136 l 0.70968,-0.01 c 0.11852,-0.001 0.21498,-0.0992 0.2136,-0.21773 l -0.004,-0.35002 5.52317,-0.0648 0.004,0.35002 c 10e-4,0.11851 0.0992,0.21359 0.21773,0.21221 l 0.70969,-0.008 c 0.11851,-0.001 0.21497,-0.0992 0.21359,-0.21773 l -0.0248,-1.98575 c -0.001,-0.11851 -0.0978,-0.21497 -0.21773,-0.21359"
       id="path406" />
  </g>
</svg>
