<?xml version="1.0" encoding="UTF-8" standalone="no"?>
<!-- Created with Inkscape (http://www.inkscape.org/) -->

<svg
   width="210mm"
   height="297mm"
   viewBox="0 0 210 297"
   version="1.1"
   id="svg1157"
   inkscape:version="1.1.2 (0a00cf5339, 2022-02-04)"
   sodipodi:docname="nocleg-glyph_pink.svg"
   xmlns:inkscape="http://www.inkscape.org/namespaces/inkscape"
   xmlns:sodipodi="http://sodipodi.sourceforge.net/DTD/sodipodi-0.dtd"
   xmlns="http://www.w3.org/2000/svg"
   xmlns:svg="http://www.w3.org/2000/svg">
  <sodipodi:namedview
     id="namedview1159"
     pagecolor="#ffffff"
     bordercolor="#666666"
     borderopacity="1.0"
     inkscape:pageshadow="2"
     inkscape:pageopacity="0.0"
     inkscape:pagecheckerboard="0"
     inkscape:document-units="mm"
     showgrid="false"
     inkscape:zoom="0.64052329"
     inkscape:cx="397.33138"
     inkscape:cy="561.25984"
     inkscape:window-width="1850"
     inkscape:window-height="1136"
     inkscape:window-x="0"
     inkscape:window-y="0"
     inkscape:window-maximized="1"
     inkscape:current-layer="layer1" />
  <defs
     id="defs1154" />
  <g
     inkscape:label="Warstwa 1"
     inkscape:groupmode="layer"
     id="layer1">
    <path
       style="fill:#e3007d;fill-opacity:1;fill-rule:nonzero;stroke:none;stroke-width:12.6517"
       d="m 20.743515,179.86944 0.456415,-30.58402 c 0.03758,-1.79458 0.877583,-3.30661 1.832409,-3.28629 l 166.281981,0.0179 c 0.99262,-0.0273 1.80552,1.5008 1.80603,3.23344 l -0.45781,30.65012 z m -1.320382,78.85004 -0.245688,16.95431 -7.384335,-0.0123 1.091428,-74.93113 185.019082,0.0164 -1.05326,74.86539 -7.38535,0.0358 0.24565,-16.95426 c 0.0825,-5.7179 -2.46366,-10.428 -5.65993,-10.42946 l -158.714334,0.0129 c -3.159186,-0.0187 -5.828988,4.66353 -5.913385,10.44892 M 185.17758,36.525301 183.87296,125.15227 29.054098,125.11302 30.357325,36.552097 Z m 18.78545,143.325269 -1.80033,0.01 0.4191,-30.58435 c 0.15628,-9.24141 -2.72003,-17.48316 -7.19296,-21.43607 l 1.64519,-115.422447 c 0.0825,-5.7178814 -2.42695,-10.4267268 -5.6232,-10.4286685 -3.15919,-0.019246 -5.83041,4.7310449 -5.91339,10.4489135 l -0.0313,3.257077 -154.818836,-0.03926 0.02944,-3.189555 C 30.760906,6.6820345 28.251568,1.9726707 25.092058,1.9719876 21.932856,1.9527456 19.298377,6.7038572 19.214009,12.48778 l -1.680565,115.35556 c -4.637192,3.89254 -7.7490051,12.13907 -7.8703991,21.4473 l -0.4564146,30.58403 -1.8003393,0.0101 c -3.1592101,-0.0187 -5.8289872,4.66354 -5.9119893,10.38235 l -1.38139105,95.80826 c -0.08240261,5.71834 2.42694065,10.4272 5.58647815,10.42786 l 18.9224232,-0.0796 c 3.159197,0.0197 5.828989,-4.66353 5.911991,-10.38236 l 0.244292,-16.88773 147.251195,0.008 -0.24425,16.8877 c -0.0824,5.71787 2.42834,10.36062 5.58786,10.36132 l 18.92044,0.0169 c 3.15917,0.0187 5.82898,-4.66354 5.91196,-10.38188 l 1.34491,-95.80954 c 0.0824,-5.71783 -2.39019,-10.4259 -5.5865,-10.42736"
       id="path62" />
  </g>
</svg>
