<?xml version="1.0" encoding="UTF-8" standalone="no"?>
<!-- Created with Inkscape (http://www.inkscape.org/) -->

<svg
   width="210mm"
   height="297mm"
   viewBox="0 0 210 297"
   version="1.1"
   id="svg855"
   inkscape:version="1.1.2 (0a00cf5339, 2022-02-04)"
   sodipodi:docname="phone_pink.svg"
   xmlns:inkscape="http://www.inkscape.org/namespaces/inkscape"
   xmlns:sodipodi="http://sodipodi.sourceforge.net/DTD/sodipodi-0.dtd"
   xmlns="http://www.w3.org/2000/svg"
   xmlns:svg="http://www.w3.org/2000/svg">
  <sodipodi:namedview
     id="namedview857"
     pagecolor="#ffffff"
     bordercolor="#666666"
     borderopacity="1.0"
     inkscape:pageshadow="2"
     inkscape:pageopacity="0.0"
     inkscape:pagecheckerboard="0"
     inkscape:document-units="mm"
     showgrid="false"
     inkscape:zoom="0.64052329"
     inkscape:cx="397.33138"
     inkscape:cy="561.25984"
     inkscape:window-width="1850"
     inkscape:window-height="1136"
     inkscape:window-x="0"
     inkscape:window-y="0"
     inkscape:window-maximized="1"
     inkscape:current-layer="layer1" />
  <defs
     id="defs852" />
  <g
     inkscape:label="Warstwa 1"
     inkscape:groupmode="layer"
     id="layer1">
    <path
       style="fill:#e3007d;fill-opacity:1;fill-rule:nonzero;stroke:none;stroke-width:13.0642"
       d="m 57.787422,89.42773 c -3.041107,4.436355 -4.327825,10.63552 -3.427931,16.59168 7.755758,50.07935 45.635586,103.86603 81.115799,115.04887 4.242,1.21724 8.61274,-0.67037 11.698,-5.0441 l 13.88338,-19.75257 c 1.07278,-1.45982 2.44408,-2.31101 4.11389,-2.31101 1.54232,0.0441 3.00068,0.85119 4.02775,2.31101 l 25.79594,36.58769 c 2.22953,3.16221 2.18599,8.38671 0,11.608 l -18.72551,26.49863 c -5.22803,7.41466 -13.0267,10.21035 -20.39688,7.41466 C 93.567393,253.64433 31.220329,165.1545 13.951657,76.968535 11.896266,66.636444 13.858371,55.575326 19.136434,48.160672 L 37.861947,21.601194 c 1.072783,-1.578899 2.484504,-2.430094 4.02807,-2.430094 1.585852,0 3.000683,0.851195 4.027756,2.430094 l 25.838845,36.587255 c 1.113207,1.578899 1.713345,3.585602 1.713345,5.713148 0,2.068446 -0.643672,4.194228 -1.713345,5.773569 z M 203.77864,220.52139 177.9827,183.93458 c -3.42793,-4.86239 -7.97031,-7.53637 -12.85505,-7.53637 h -0.0311 c -4.84214,0 -9.34161,2.67266 -12.72663,7.53637 l -13.84077,19.6304 c -0.21767,0.30873 -0.42912,0.30873 -0.42912,0.30873 -31.28081,-9.84608 -64.789586,-57.37272 -71.688672,-101.49636 l 14.14053,-20.359864 c 3.385332,-4.801091 5.270632,-11.243707 5.270632,-18.111481 0,-6.806909 -1.884368,-13.249085 -5.270632,-18.171901 L 54.755954,9.0859886 C 51.328022,4.2848985 46.785951,1.6109125 41.94381,1.6109125 c -4.842139,0 -9.384211,2.6726627 -12.812144,7.5359388 L 10.405874,35.766748 C 2.007379,47.557337 -1.206307,65.182356 2.007379,81.713613 20.73286,176.88908 85.479851,268.66109 152.54063,295.22013 c 2.91362,1.21283 5.95597,1.82145 9.04123,1.82145 8.8273,0 17.35453,-4.98368 23.48214,-13.67468 l 18.72552,-26.55904 c 7.0275,-10.02822 7.0275,-26.31646 0,-36.28338"
       id="path118" />
  </g>
</svg>
