<?xml version="1.0" encoding="UTF-8" standalone="no"?>
<!-- Created with Inkscape (http://www.inkscape.org/) -->

<svg
   width="210mm"
   height="297mm"
   viewBox="0 0 210 297"
   version="1.1"
   id="svg517"
   inkscape:version="1.1.2 (0a00cf5339, 2022-02-04)"
   sodipodi:docname="phone_mag(małe).svg"
   xmlns:inkscape="http://www.inkscape.org/namespaces/inkscape"
   xmlns:sodipodi="http://sodipodi.sourceforge.net/DTD/sodipodi-0.dtd"
   xmlns="http://www.w3.org/2000/svg"
   xmlns:svg="http://www.w3.org/2000/svg">
  <sodipodi:namedview
     id="namedview519"
     pagecolor="#ffffff"
     bordercolor="#666666"
     borderopacity="1.0"
     inkscape:pageshadow="2"
     inkscape:pageopacity="0.0"
     inkscape:pagecheckerboard="0"
     inkscape:document-units="mm"
     showgrid="false"
     inkscape:zoom="0.64052329"
     inkscape:cx="397.33138"
     inkscape:cy="561.25984"
     inkscape:window-width="1850"
     inkscape:window-height="1136"
     inkscape:window-x="0"
     inkscape:window-y="0"
     inkscape:window-maximized="1"
     inkscape:current-layer="layer1" />
  <defs
     id="defs514" />
  <g
     inkscape:label="Warstwa 1"
     inkscape:groupmode="layer"
     id="layer1">
    <g
       id="g185"
       transform="matrix(0.35277777,0,0,-0.35277777,92.2547,131.64814)">
      <path
         d="m 0,0 c -0.279,-0.286 -0.396,-0.685 -0.313,-1.068 0.706,-3.22 4.158,-6.676 7.393,-7.396 0.387,-0.077 0.785,0.045 1.066,0.327 l 1.268,1.268 c 0.095,0.094 0.222,0.15 0.375,0.148 0.14,-0.001 0.272,-0.054 0.364,-0.148 l 2.352,-2.352 c 0.203,-0.203 0.202,-0.538 0,-0.744 l -1.707,-1.706 C 10.324,-12.146 9.611,-12.327 8.94,-12.144 3.261,-10.556 -2.422,-4.87 -3.999,0.8 -4.187,1.464 -4.006,2.174 -3.527,2.654 L -1.82,4.36 c 0.099,0.099 0.23,0.153 0.369,0.153 0.143,0 0.273,-0.053 0.369,-0.153 L 1.27,2.008 C 1.374,1.904 1.429,1.776 1.429,1.639 1.429,1.505 1.371,1.371 1.27,1.27 Z m 13.306,-8.426 -2.352,2.352 c -0.312,0.312 -0.727,0.483 -1.169,0.483 H 9.78 C 9.339,-5.592 8.927,-5.764 8.62,-6.074 L 7.358,-7.336 C 7.337,-7.355 7.32,-7.357 7.32,-7.357 4.466,-6.725 1.411,-3.67 0.785,-0.832 l 1.286,1.307 c 0.31,0.31 0.48,0.723 0.48,1.164 0,0.438 -0.17,0.853 -0.48,1.17 l -2.352,2.352 c -0.312,0.311 -0.726,0.483 -1.167,0.483 -0.441,0 -0.856,-0.172 -1.168,-0.484 L -4.321,3.449 c -0.765,-0.76 -1.06,-1.892 -0.767,-2.955 1.707,-6.117 7.608,-12.016 13.724,-13.721 0.266,-0.078 0.543,-0.118 0.825,-0.118 0.801,0 1.581,0.32 2.138,0.879 l 1.707,1.706 c 0.641,0.647 0.64,1.694 0,2.334"
         style="fill:#35173f;fill-opacity:1;fill-rule:nonzero;stroke:none"
         id="path187" />
    </g>
  </g>
</svg>
