<?xml version="1.0" encoding="UTF-8" standalone="no"?>
<!-- Created with Inkscape (http://www.inkscape.org/) -->

<svg
   width="210mm"
   height="297mm"
   viewBox="0 0 210 297"
   version="1.1"
   id="svg312"
   inkscape:version="1.1.2 (0a00cf5339, 2022-02-04)"
   sodipodi:docname="phone_mag.svg"
   xmlns:inkscape="http://www.inkscape.org/namespaces/inkscape"
   xmlns:sodipodi="http://sodipodi.sourceforge.net/DTD/sodipodi-0.dtd"
   xmlns="http://www.w3.org/2000/svg"
   xmlns:svg="http://www.w3.org/2000/svg">
  <sodipodi:namedview
     id="namedview314"
     pagecolor="#ffffff"
     bordercolor="#666666"
     borderopacity="1.0"
     inkscape:pageshadow="2"
     inkscape:pageopacity="0.0"
     inkscape:pagecheckerboard="0"
     inkscape:document-units="mm"
     showgrid="false"
     inkscape:zoom="0.45291836"
     inkscape:cx="-20.975083"
     inkscape:cy="478.01109"
     inkscape:window-width="1620"
     inkscape:window-height="970"
     inkscape:window-x="26"
     inkscape:window-y="23"
     inkscape:window-maximized="0"
     inkscape:current-layer="layer1" />
  <defs
     id="defs309" />
  <g
     inkscape:label="Warstwa 1"
     inkscape:groupmode="layer"
     id="layer1">
    <path
       style="fill:#33143d;fill-opacity:1;fill-rule:nonzero;stroke:none;stroke-width:13.0908"
       d="m 57.836872,88.420034 c -3.049467,4.444433 -4.33798,10.654368 -3.436045,16.620726 7.774042,50.22742 45.742223,104.04669 81.305263,115.30986 4.25214,1.15661 8.6331,-0.73077 11.72554,-5.11416 l 13.91591,-19.78649 c 1.07432,-1.46057 2.44824,-2.31368 4.12326,-2.2527 1.5462,0 3.00641,0.79169 3.99437,2.2527 l 25.89915,36.71163 c 2.19048,3.16591 2.19048,8.34082 0,11.56756 l -18.76936,26.60523 c -5.23991,7.36656 -13.05694,10.22814 -20.4445,7.36656 C 93.700565,252.92221 31.20751,164.33949 13.855563,75.939344 11.793814,65.589533 13.812045,54.509019 19.052521,47.08148 L 37.821964,20.47625 c 1.116738,-1.582997 2.533948,-2.374685 4.080278,-2.374685 1.546232,0 3.006454,0.791688 4.037362,2.374685 l 25.856157,36.650713 c 1.159768,1.643899 1.760987,3.592206 1.760987,5.722872 0,2.130814 -0.644232,4.200644 -1.760987,5.783707 z M 204.16919,219.74166 178.27004,183.09095 c -3.39305,-4.87051 -7.9888,-7.54921 -12.84227,-7.54921 h -0.0429 c -4.85345,0.0608 -9.36315,2.73953 -12.75633,7.54921 l -13.87301,19.66482 c -0.25862,0.30494 -0.4296,0.30494 -0.4296,0.30494 -31.3538,-9.80193 -64.984148,-57.41132 -71.856224,-101.67239 L 80.600468,80.993024 c 3.436046,-4.809595 5.282928,-11.263087 5.282928,-18.14266 0,-6.818738 -1.847013,-13.272148 -5.282928,-18.203645 L 54.744262,7.9960878 C 51.308216,3.1255091 46.755497,0.44664625 41.945043,0.44664625 c -4.853451,0 -9.449183,2.67907765 -12.842211,7.54944155 L 10.333487,34.662071 C 1.9151111,46.534042 -1.3061765,64.128885 1.9151111,80.749615 20.684487,176.02933 85.539749,268.02139 152.80025,294.56585 c 2.92042,1.21716 5.97012,1.82642 9.06257,1.82642 8.80487,0 17.39493,-4.99225 23.53683,-13.69824 l 18.76936,-26.54446 c 7.04393,-10.10641 7.0009,-26.42258 0,-36.40731"
       id="path106" />
  </g>
</svg>
