<?xml version="1.0" encoding="UTF-8" standalone="no"?>
<!-- Created with Inkscape (http://www.inkscape.org/) -->

<svg
   width="6.6975703mm"
   height="6.6986451mm"
   viewBox="0 0 6.6975703 6.6986451"
   version="1.1"
   id="svg971"
   inkscape:version="1.1.2 (0a00cf5339, 2022-02-04)"
   sodipodi:docname="phone_mag.svg"
   xmlns:inkscape="http://www.inkscape.org/namespaces/inkscape"
   xmlns:sodipodi="http://sodipodi.sourceforge.net/DTD/sodipodi-0.dtd"
   xmlns="http://www.w3.org/2000/svg"
   xmlns:svg="http://www.w3.org/2000/svg">
  <sodipodi:namedview
     id="namedview973"
     pagecolor="#ffffff"
     bordercolor="#666666"
     borderopacity="1.0"
     inkscape:pageshadow="2"
     inkscape:pageopacity="0.0"
     inkscape:pagecheckerboard="0"
     inkscape:document-units="mm"
     showgrid="false"
     fit-margin-top="0"
     fit-margin-left="0"
     fit-margin-right="0"
     fit-margin-bottom="0"
     inkscape:zoom="0.64052329"
     inkscape:cx="64.010163"
     inkscape:cy="322.39265"
     inkscape:window-width="1850"
     inkscape:window-height="1136"
     inkscape:window-x="0"
     inkscape:window-y="0"
     inkscape:window-maximized="1"
     inkscape:current-layer="layer1" />
  <defs
     id="defs968" />
  <g
     inkscape:label="Warstwa 1"
     inkscape:groupmode="layer"
     id="layer1"
     transform="translate(79.767403,-63.155568)">
    <path
       style="fill:#33143d;fill-opacity:1;fill-rule:nonzero;stroke:none;stroke-width:0.352778"
       d="m -77.933755,65.146823 c -0.09784,0.100598 -0.139182,0.241158 -0.110243,0.376205 0.249424,1.136883 1.467608,2.355067 2.608625,2.610005 0.136427,0.02618 0.276987,-0.01654 0.376206,-0.115757 l 0.446483,-0.447861 c 0.03447,-0.03306 0.07855,-0.05237 0.132291,-0.05099 0.04961,0 0.09646,0.01792 0.128157,0.05099 l 0.830958,0.830957 c 0.07028,0.07166 0.07028,0.188793 0,0.261828 l -0.602202,0.602202 c -0.16812,0.166741 -0.418924,0.231511 -0.655948,0.166741 -2.003665,-0.56086 -4.008713,-2.565905 -4.565439,-4.566818 -0.06615,-0.234265 -0.0014,-0.485069 0.166741,-0.653189 l 0.602206,-0.602202 c 0.03583,-0.03583 0.0813,-0.05375 0.130912,-0.05375 0.04961,0 0.09646,0.01792 0.129536,0.05375 l 0.829579,0.829578 c 0.03721,0.03721 0.0565,0.08131 0.0565,0.129536 0,0.04823 -0.02067,0.09508 -0.0565,0.130913 z m 4.694974,2.972427 -0.830957,-0.829578 c -0.108864,-0.110243 -0.256314,-0.170875 -0.412034,-0.170875 h -0.0014 c -0.15572,0.0014 -0.300412,0.06201 -0.409279,0.170875 l -0.445107,0.445107 c -0.0083,0.0069 -0.01379,0.0069 -0.01379,0.0069 -1.005967,-0.221862 -2.084973,-1.299488 -2.305459,-2.301324 l 0.453376,-0.461642 c 0.110243,-0.108864 0.169499,-0.254938 0.169499,-0.410654 0,-0.154341 -0.05926,-0.300412 -0.169499,-0.412034 l -0.829579,-0.829578 c -0.110243,-0.110243 -0.256314,-0.170879 -0.410654,-0.170879 -0.15572,0 -0.30317,0.06064 -0.412034,0.170879 l -0.602202,0.603578 c -0.270097,0.268718 -0.373451,0.666972 -0.270097,1.043178 0.602202,2.156629 2.68304,4.238843 4.841049,4.83967 0.0937,0.02755 0.191548,0.04134 0.290766,0.04134 0.282498,0 0.558105,-0.112998 0.755164,-0.310056 l 0.602202,-0.600826 c 0.226,-0.228756 0.224621,-0.598068 0,-0.824068"
       id="path106" />
  </g>
</svg>
