<?xml version="1.0" encoding="UTF-8" standalone="no"?>
<!-- Created with Inkscape (http://www.inkscape.org/) -->

<svg
   width="6.6980844mm"
   height="6.6986408mm"
   viewBox="0 0 6.6980844 6.6986408"
   version="1.1"
   id="svg1042"
   inkscape:version="1.1.2 (0a00cf5339, 2022-02-04)"
   sodipodi:docname="phone_pink.svg"
   xmlns:inkscape="http://www.inkscape.org/namespaces/inkscape"
   xmlns:sodipodi="http://sodipodi.sourceforge.net/DTD/sodipodi-0.dtd"
   xmlns="http://www.w3.org/2000/svg"
   xmlns:svg="http://www.w3.org/2000/svg">
  <sodipodi:namedview
     id="namedview1044"
     pagecolor="#ffffff"
     bordercolor="#666666"
     borderopacity="1.0"
     inkscape:pageshadow="2"
     inkscape:pageopacity="0.0"
     inkscape:pagecheckerboard="0"
     inkscape:document-units="mm"
     showgrid="false"
     fit-margin-top="0"
     fit-margin-left="0"
     fit-margin-right="0"
     fit-margin-bottom="0"
     inkscape:zoom="0.64052329"
     inkscape:cx="377.81608"
     inkscape:cy="370.79058"
     inkscape:window-width="1850"
     inkscape:window-height="1136"
     inkscape:window-x="0"
     inkscape:window-y="0"
     inkscape:window-maximized="1"
     inkscape:current-layer="layer1" />
  <defs
     id="defs1039" />
  <g
     inkscape:label="Warstwa 1"
     inkscape:groupmode="layer"
     id="layer1"
     transform="translate(162.79509,-50.350286)">
    <path
       style="fill:#e3007d;fill-opacity:1;fill-rule:nonzero;stroke:none;stroke-width:0.352778"
       d="m -160.96184,52.341544 c -0.0978,0.100595 -0.13918,0.241155 -0.11024,0.376202 0.24942,1.135504 1.46761,2.355067 2.60863,2.608626 0.13642,0.02755 0.27698,-0.01517 0.3762,-0.114374 l 0.44648,-0.447866 c 0.0345,-0.03305 0.0786,-0.05236 0.1323,-0.05236 0.0496,0.0014 0.0965,0.0193 0.12953,0.05236 l 0.82958,0.829582 c 0.0717,0.07166 0.0703,0.190168 0,0.263204 l -0.6022,0.600826 c -0.16813,0.16812 -0.41893,0.231511 -0.65595,0.16812 -2.00367,-0.560864 -4.00871,-2.567287 -4.56406,-4.566817 -0.0662,-0.23427 -0.003,-0.48507 0.16674,-0.653193 l 0.6022,-0.602202 c 0.0345,-0.03583 0.0799,-0.05512 0.12954,-0.05512 0.051,0 0.0965,0.0193 0.12953,0.05512 l 0.83096,0.829578 c 0.0358,0.03583 0.0551,0.0813 0.0551,0.129536 0,0.04685 -0.0207,0.09508 -0.0551,0.130916 z m 4.69498,2.972428 -0.82958,-0.829578 c -0.11024,-0.110243 -0.25632,-0.170879 -0.41341,-0.170879 h -0.001 c -0.15572,0 -0.30042,0.06064 -0.40928,0.170879 l -0.44511,0.445103 c -0.007,0.0069 -0.0138,0.0069 -0.0138,0.0069 -1.00597,-0.223245 -2.08359,-1.300868 -2.30546,-2.301324 l 0.45475,-0.461645 c 0.10887,-0.108864 0.1695,-0.254935 0.1695,-0.410655 0,-0.15434 -0.0606,-0.300411 -0.1695,-0.412034 l -0.82958,-0.830957 c -0.11024,-0.108864 -0.25631,-0.169496 -0.41203,-0.169496 -0.15572,0 -0.30179,0.06063 -0.41203,0.170875 l -0.60221,0.603582 c -0.27009,0.267338 -0.37344,0.666968 -0.27009,1.041795 0.6022,2.158008 2.68442,4.238847 4.84105,4.841049 0.0937,0.02755 0.19154,0.04134 0.29076,0.04134 0.28388,0 0.55811,-0.113002 0.75517,-0.31006 l 0.6022,-0.602202 c 0.226,-0.227376 0.226,-0.596692 0,-0.822688"
       id="path118" />
  </g>
</svg>
