<?xml version="1.0" encoding="UTF-8" standalone="no"?>
<!-- Created with Inkscape (http://www.inkscape.org/) -->

<svg
   width="210mm"
   height="297mm"
   viewBox="0 0 210 297"
   version="1.1"
   id="svg1212"
   inkscape:version="1.1.2 (0a00cf5339, 2022-02-04)"
   sodipodi:docname="prawna-glyph_pink.svg"
   xmlns:inkscape="http://www.inkscape.org/namespaces/inkscape"
   xmlns:sodipodi="http://sodipodi.sourceforge.net/DTD/sodipodi-0.dtd"
   xmlns="http://www.w3.org/2000/svg"
   xmlns:svg="http://www.w3.org/2000/svg">
  <sodipodi:namedview
     id="namedview1214"
     pagecolor="#ffffff"
     bordercolor="#666666"
     borderopacity="1.0"
     inkscape:pageshadow="2"
     inkscape:pageopacity="0.0"
     inkscape:pagecheckerboard="0"
     inkscape:document-units="mm"
     showgrid="false"
     inkscape:zoom="0.64052329"
     inkscape:cx="397.33138"
     inkscape:cy="561.25984"
     inkscape:window-width="1850"
     inkscape:window-height="1136"
     inkscape:window-x="0"
     inkscape:window-y="0"
     inkscape:window-maximized="1"
     inkscape:current-layer="layer1" />
  <defs
     id="defs1209" />
  <g
     inkscape:label="Warstwa 1"
     inkscape:groupmode="layer"
     id="layer1">
    <path
       style="fill:#e3007d;fill-opacity:1;fill-rule:nonzero;stroke:none;stroke-width:11.5278"
       d="m 174.24933,173.76795 c -11.18888,0.20318 -20.96561,-11.75987 -23.68128,-28.11169 l 46.89194,-0.84119 c -2.46238,16.4079 -12.05792,28.72733 -23.21066,28.95166 m -1.05001,-138.429471 22.37775,91.949971 -43.41577,0.78429 z M 61.45516,129.69537 18.075627,130.47966 39.077382,37.801065 Z M 40.12747,176.23054 C 28.902438,176.39308 19.161845,164.47067 16.446195,148.11885 l 46.891939,-0.89402 C 60.875763,163.68881 51.28019,176.00866 40.12747,176.23257 M 209.48172,134.51327 178.26877,6.5554738 C 177.47258,3.3085981 175.51674,1.4035476 173.16306,1.4035476 172.69219,1.1597273 172.11305,0.89965274 171.38887,0.89965274 L 38.787737,3.3094115 C 37.122069,3.3500547 35.6375,4.5407046 34.659804,6.446567 L 34.044408,6.7716618 4.6780798,136.46504 l -0.326354,3.02337 c 0.2180953,30.2951 16.3307402,54.59912 35.9203442,54.26307 19.553369,-0.40638 35.268582,-25.25574 35.051302,-55.55125 l -0.03678,-0.72739 0.07357,-0.5608 -28.316165,-116.141833 53.264883,-0.9509 1.9555,258.939353 -61.339786,1.11751 c -3.150237,0.0407 -5.684974,4.03117 -5.648713,8.90391 0.03679,4.87194 2.607155,8.73609 5.75734,8.68001 L 175.15516,294.9975 c 3.15023,-0.0407 5.64871,-4.03117 5.61255,-8.84824 -0.0367,-4.87154 -2.60715,-8.79176 -5.75744,-8.73568 l -61.37597,1.12157 -1.9915,-258.938939 53.26489,-0.9509 -26.10744,115.246209 -0.32635,3.13715 c 0.21809,30.29509 16.33074,54.6548 35.88408,54.26265 19.55348,-0.32509 35.26858,-25.25533 35.0513,-55.55083 l -0.0367,-0.61768 z m 0,0"
       id="path70" />
  </g>
</svg>
