<?xml version="1.0" encoding="UTF-8" standalone="no"?>
<!-- Created with Inkscape (http://www.inkscape.org/) -->

<svg
   width="7.80654mm"
   height="7.2981167mm"
   viewBox="0 0 7.80654 7.2981167"
   version="1.1"
   id="svg706"
   inkscape:version="1.1.2 (0a00cf5339, 2022-02-04)"
   sodipodi:docname="prawna-glyph_pink.svg"
   xmlns:inkscape="http://www.inkscape.org/namespaces/inkscape"
   xmlns:sodipodi="http://sodipodi.sourceforge.net/DTD/sodipodi-0.dtd"
   xmlns="http://www.w3.org/2000/svg"
   xmlns:svg="http://www.w3.org/2000/svg">
  <sodipodi:namedview
     id="namedview708"
     pagecolor="#ffffff"
     bordercolor="#666666"
     borderopacity="1.0"
     inkscape:pageshadow="2"
     inkscape:pageopacity="0.0"
     inkscape:pagecheckerboard="0"
     inkscape:document-units="mm"
     showgrid="false"
     fit-margin-top="0"
     fit-margin-left="0"
     fit-margin-right="0"
     fit-margin-bottom="0"
     inkscape:zoom="0.64052329"
     inkscape:cx="604.19349"
     inkscape:cy="494.12723"
     inkscape:window-width="1850"
     inkscape:window-height="1136"
     inkscape:window-x="0"
     inkscape:window-y="0"
     inkscape:window-maximized="1"
     inkscape:current-layer="layer1" />
  <defs
     id="defs703" />
  <g
     inkscape:label="Warstwa 1"
     inkscape:groupmode="layer"
     id="layer1"
     transform="translate(222.83234,-17.8308)">
    <path
       style="fill:#e3007d;fill-opacity:1;fill-rule:nonzero;stroke:none;stroke-width:0.352778"
       d="m -216.3666,22.084824 c -0.42582,0.0055 -0.79789,-0.28939 -0.90124,-0.691776 l 1.78456,-0.02067 c -0.0937,0.403764 -0.45889,0.706931 -0.88332,0.712445 m -0.04,-3.40651 0.85163,2.262737 -1.65227,0.0193 z m -4.25262,2.321993 -1.65089,0.0193 0.79926,-2.280655 z m -0.81167,1.145149 c -0.42719,0.0041 -0.79788,-0.289387 -0.90123,-0.691776 l 1.78456,-0.02205 c -0.0937,0.405144 -0.45889,0.708314 -0.88333,0.713825 m 6.44509,-1.026636 -1.18787,-3.148821 c -0.0303,-0.07992 -0.10473,-0.126777 -0.19431,-0.126777 -0.0179,-0.0055 -0.04,-0.01242 -0.0675,-0.01242 l -5.04637,0.05926 c -0.0634,0.0014 -0.11989,0.0303 -0.1571,0.07717 l -0.0234,0.0083 -1.11759,3.191535 -0.0124,0.07441 c 0.008,0.745518 0.62149,1.343589 1.36701,1.33532 0.74414,-0.0096 1.34221,-0.621496 1.33394,-1.367014 l -10e-4,-0.01792 0.003,-0.01379 -1.07762,-2.85805 2.02709,-0.02342 0.0744,6.372048 -2.3344,0.02755 c -0.11989,0.0014 -0.21635,0.09922 -0.21497,0.219107 0.001,0.119891 0.0992,0.214975 0.21911,0.213596 l 5.10425,-0.06063 c 0.11989,-0.0014 0.21497,-0.09922 0.2136,-0.217731 -0.001,-0.119888 -0.0992,-0.216351 -0.21911,-0.214972 l -2.33578,0.02755 -0.0758,-6.372048 2.02709,-0.02342 -0.99356,2.836005 -0.0124,0.07717 c 0.008,0.745519 0.6215,1.344966 1.36563,1.335317 0.74415,-0.0083 1.34221,-0.621495 1.33395,-1.367014 l -0.001,-0.01517 z m 0,0"
       id="path70" />
  </g>
</svg>
