<?xml version="1.0" encoding="UTF-8" standalone="no"?>
<!-- Created with Inkscape (http://www.inkscape.org/) -->

<svg
   width="6.6237679mm"
   height="7.7941046mm"
   viewBox="0 0 6.6237679 7.7941046"
   version="1.1"
   id="svg893"
   inkscape:version="1.1.2 (0a00cf5339, 2022-02-04)"
   sodipodi:docname="psychologiczna-glyph_pink.svg"
   xmlns:inkscape="http://www.inkscape.org/namespaces/inkscape"
   xmlns:sodipodi="http://sodipodi.sourceforge.net/DTD/sodipodi-0.dtd"
   xmlns="http://www.w3.org/2000/svg"
   xmlns:svg="http://www.w3.org/2000/svg">
  <sodipodi:namedview
     id="namedview895"
     pagecolor="#ffffff"
     bordercolor="#666666"
     borderopacity="1.0"
     inkscape:pageshadow="2"
     inkscape:pageopacity="0.0"
     inkscape:pagecheckerboard="0"
     inkscape:document-units="mm"
     showgrid="false"
     fit-margin-top="0"
     fit-margin-left="0"
     fit-margin-right="0"
     fit-margin-bottom="0"
     inkscape:zoom="0.64052329"
     inkscape:cx="284.14267"
     inkscape:cy="303.65797"
     inkscape:window-width="1850"
     inkscape:window-height="1136"
     inkscape:window-x="0"
     inkscape:window-y="0"
     inkscape:window-maximized="1"
     inkscape:current-layer="layer1" />
  <defs
     id="defs890" />
  <g
     inkscape:label="Warstwa 1"
     inkscape:groupmode="layer"
     id="layer1"
     transform="translate(137.97375,-67.977758)">
    <path
       style="fill:#e3007d;fill-opacity:1;fill-rule:nonzero;stroke:none;stroke-width:0.352778"
       d="m -132.03709,72.009834 c -0.15847,0.389982 -0.33761,0.833713 -0.3321,1.406976 0.003,0.157096 0.004,0.373447 0.006,0.613227 0.001,0.414789 0.004,0.912262 0.011,1.281575 l -2.6982,0.03168 -0.0138,-0.622871 c -0.003,-0.141937 -0.073,-0.276987 -0.19706,-0.378961 -0.15158,-0.122647 -0.35553,-0.180524 -0.53054,-0.148827 l -0.71796,0.114374 c -0.11438,0.02205 -0.23289,-0.02618 -0.29352,-0.121267 -0.0413,-0.06615 -0.0551,-0.241155 -0.0262,-0.326595 0.0648,-0.187413 0.0193,-0.391361 -0.11162,-0.526408 0.0317,-0.09646 0.0152,-0.203951 -0.0468,-0.285256 l -0.0152,-0.02067 0.0579,-0.281122 c 0.0124,-0.05926 -0.001,-0.121267 -0.0372,-0.169499 -0.0358,-0.04823 -0.0909,-0.07993 -0.15021,-0.08544 -0.15572,-0.01655 -0.29076,-0.0565 -0.38998,-0.118512 -0.0248,-0.01517 -0.0317,-0.04548 -0.0179,-0.0689 l 0.52779,-0.899859 c 0.004,-0.0069 0.008,-0.01517 0.011,-0.02205 0.0579,-0.133671 0.0537,-0.283877 -0.0124,-0.413413 l -0.0537,-0.103336 c -0.006,-0.0096 -0.007,-0.0193 -0.007,-0.02893 -0.01,-0.4644 0.0923,-1.131369 0.62287,-1.667425 0.89435,-0.899859 2.50252,-1.029395 3.58428,-0.286632 0.75103,0.514008 1.0666,1.117589 1.0914,2.082214 0.01,0.374827 -0.12264,0.701421 -0.26044,1.045933 m -0.58981,-3.479549 c -1.24436,-0.853002 -3.09645,-0.701421 -4.12722,0.337622 -0.63665,0.642165 -0.75792,1.429026 -0.74828,1.974727 0.001,0.07579 0.0193,0.14883 0.0551,0.216352 l 0.0537,0.104732 c 0.005,0.01242 0.007,0.02618 0.004,0.03996 l -0.51952,0.883324 c -0.13092,0.221862 -0.0579,0.514007 0.1626,0.649054 0.0992,0.06063 0.21222,0.107488 0.339,0.137802 l -0.0248,0.119892 c -0.0179,0.08682 0.003,0.177765 0.0565,0.249424 l 0.004,0.0041 c -0.051,0.125402 -0.0138,0.271473 0.0923,0.356912 l 0.0262,0.02067 c 0.0303,0.0248 0.0303,0.06615 0.0207,0.09508 -0.0634,0.180524 -0.0551,0.498849 0.0689,0.693156 0.15296,0.242534 0.44648,0.369312 0.72622,0.31419 l 0.71658,-0.112998 c 0.0551,-0.01101 0.13505,0.01517 0.18742,0.05788 0.0289,0.02342 0.0413,0.04548 0.0413,0.05788 l 0.0179,0.832336 c 0.003,0.117133 0.0992,0.210838 0.21635,0.209462 l 3.12539,-0.03721 c 0.0565,0 0.11162,-0.0248 0.15159,-0.06477 0.0386,-0.04134 0.0606,-0.09784 0.0592,-0.15434 -0.011,-0.363802 -0.0138,-0.986677 -0.0165,-1.488281 -0.001,-0.23978 -0.003,-0.457511 -0.004,-0.614606 -0.005,-0.487825 0.1502,-0.8723 0.30041,-1.244371 0.14883,-0.369312 0.30317,-0.751028 0.29077,-1.214049 -0.0276,-1.105186 -0.40928,-1.830035 -1.27607,-2.423971"
       id="path64" />
    <path
       style="fill:#e3007d;fill-opacity:1;fill-rule:nonzero;stroke:none;stroke-width:0.352778"
       d="m -135.117,69.968958 c 0.19292,-0.0028 0.37483,0.09646 0.47404,0.259069 0.0785,0.128161 0.28388,0.130916 0.3707,-0.0041 0.0951,-0.165365 0.2756,-0.268718 0.46853,-0.271477 0.29903,-0.0028 0.54708,0.23289 0.54984,0.527791 0.008,0.617361 -0.90538,1.296734 -1.18374,1.488281 -0.57464,-0.370691 -1.21405,-0.959114 -1.21956,-1.460722 -0.004,-0.293522 0.2384,-0.536056 0.54019,-0.538811 m 1.30776,-0.447862 c -0.24529,0.0028 -0.4768,0.09508 -0.65457,0.257693 -0.1819,-0.158475 -0.41479,-0.245293 -0.65871,-0.242535 -0.53881,0.0055 -0.97289,0.445107 -0.96738,0.977029 0.0124,0.975649 1.38907,1.807986 1.54341,1.897556 0.0331,0.02067 0.073,0.03168 0.11437,0.03168 0.0413,0 0.0799,-0.01242 0.11025,-0.03305 0.15571,-0.09508 1.5117,-0.959115 1.50068,-1.934768 -0.006,-0.531922 -0.44924,-0.96049 -0.98805,-0.9536"
       id="path66" />
  </g>
</svg>
