<?xml version="1.0" encoding="UTF-8" standalone="no"?>
<!-- Created with Inkscape (http://www.inkscape.org/) -->

<svg
   width="210mm"
   height="297mm"
   viewBox="0 0 210 297"
   version="1.1"
   id="svg468"
   inkscape:version="1.1.2 (0a00cf5339, 2022-02-04)"
   sodipodi:docname="psychologiczna-glyph_pink.svg"
   xmlns:inkscape="http://www.inkscape.org/namespaces/inkscape"
   xmlns:sodipodi="http://sodipodi.sourceforge.net/DTD/sodipodi-0.dtd"
   xmlns="http://www.w3.org/2000/svg"
   xmlns:svg="http://www.w3.org/2000/svg">
  <sodipodi:namedview
     id="namedview470"
     pagecolor="#ffffff"
     bordercolor="#666666"
     borderopacity="1.0"
     inkscape:pageshadow="2"
     inkscape:pageopacity="0.0"
     inkscape:pagecheckerboard="0"
     inkscape:document-units="mm"
     showgrid="false"
     inkscape:zoom="0.64052329"
     inkscape:cx="397.33138"
     inkscape:cy="561.25984"
     inkscape:window-width="1850"
     inkscape:window-height="1136"
     inkscape:window-x="0"
     inkscape:window-y="0"
     inkscape:window-maximized="1"
     inkscape:current-layer="layer1" />
  <defs
     id="defs465" />
  <g
     inkscape:label="Warstwa 1"
     inkscape:groupmode="layer"
     id="layer1">
    <path
       style="fill:#e3007d;fill-opacity:1;fill-rule:nonzero;stroke:none;stroke-width:12.2009"
       d="m 187.37182,154.2435 c -4.98961,14.81632 -10.62968,31.6743 -10.4562,53.45334 0.0944,5.96846 0.12594,14.18792 0.18891,23.29755 0.0315,15.75851 0.12594,34.65817 0.34632,48.68882 l -84.950541,1.20435 -0.434166,-23.66381 c -0.08815,-5.39252 -2.299602,-10.52328 -6.204327,-14.39727 -4.772429,-4.65966 -11.193652,-6.85823 -16.70366,-5.65428 l -22.604355,4.34547 c -3.601061,0.83582 -7.332312,-0.99539 -9.241258,-4.60724 -1.301554,-2.51123 -1.735407,-9.16204 -0.824254,-12.40803 2.039228,-7.11999 0.607643,-14.86838 -3.514355,-19.99875 0.997417,-3.66618 0.477615,-7.74837 -1.475031,-10.83747 l -0.477615,-0.78643 1.822302,-10.68017 c 0.391026,-2.25291 -0.04408,-4.60724 -1.171531,-6.43958 -1.128077,-1.83119 -2.863483,-3.03552 -4.729109,-3.24448 -4.902678,-0.62686 -9.154517,-2.14651 -12.278342,-4.50237 -0.780806,-0.57748 -0.997418,-1.72862 -0.564196,-2.61762 l 16.616923,-34.18707 c 0.129093,-0.26594 0.261316,-0.57746 0.346639,-0.83581 1.822302,-5.07833 1.691958,-10.78505 -0.391032,-15.70608 l -1.68944,-3.92606 C 28.81034,110.3606 28.766261,110.00728 28.766261,109.64256 28.464013,91.999289 31.673192,66.660449 48.376852,46.294702 76.534632,12.107632 127.16658,7.1862076 161.22486,35.405186 c 23.64554,19.527655 33.58099,42.45897 34.36211,79.106374 0.31485,14.24037 -3.86153,26.64803 -8.20004,39.73649 M 168.81758,22.054959 C 129.63966,-10.352208 71.328257,-4.5934504 38.87522,34.881663 18.83081,59.278312 15.012823,89.172339 15.316487,109.90433 c 0.04408,2.87975 0.607644,5.65428 1.735406,8.21984 l 1.691958,3.97886 c 0.173168,0.4711 0.217239,0.99538 0.129093,1.51966 L 2.5163572,157.18138 c -4.1217779,8.42919 -1.82230209,19.52803 5.1195106,24.65879 3.1238562,2.30229 6.6815642,4.08372 10.6730612,5.23524 l -0.780807,4.55479 c -0.564196,3.29768 0.08816,6.75376 1.778854,9.47625 l 0.129094,0.15187 c -1.605377,4.76453 -0.434166,10.31395 2.906929,13.55996 l 0.824258,0.78643 c 0.953968,0.94219 0.953968,2.51124 0.650776,3.61298 -1.995779,6.85863 -1.735407,18.9521 2.169258,26.33422 4.815844,9.21409 14.057134,14.03067 22.864572,11.93657 l 22.560906,-4.29305 c 1.735404,-0.4179 4.251807,0.57747 5.900537,2.19972 0.910836,0.88899 1.301556,1.72861 1.301556,2.19971 l 0.564194,31.62149 c 0.08815,4.45034 3.123856,8.01015 6.811627,7.95772 l 98.400537,-1.41328 c 1.77886,0 3.51426,-0.9422 4.77237,-2.46186 1.21528,-1.56905 1.90793,-3.71559 1.86701,-5.86362 -0.34632,-13.82132 -0.43448,-37.48549 -0.51949,-56.54206 -0.0315,-9.10961 -0.0944,-17.3815 -0.12594,-23.34997 -0.18891,-18.53305 4.72923,-33.14003 9.45815,-47.27555 4.68578,-14.03065 9.54504,-28.53279 9.15463,-46.12363 C 208.129,72.156686 196.11213,44.618516 168.82231,22.053819"
       id="path64" />
    <path
       style="fill:#e3007d;fill-opacity:1;fill-rule:nonzero;stroke:none;stroke-width:12.2009"
       d="m 90.403239,76.707693 c 6.074016,-0.113968 11.801081,3.666185 14.924901,9.842468 2.47308,4.868998 8.93762,4.973474 11.67092,-0.151956 2.99352,-6.28228 8.67738,-10.209087 14.7513,-10.313943 9.41501,-0.113968 17.22434,8.847851 17.31124,20.051555 0.25187,23.454833 -28.5048,49.265143 -37.26892,56.542423 C 93.700542,138.59478 73.569268,116.23979 73.39579,97.182855 73.266705,86.031578 80.901609,76.817489 90.403239,76.712631 M 131.57687,59.69774 c -7.72274,0.113967 -15.01167,3.612994 -20.60853,9.790039 -5.72694,-6.020518 -13.059281,-9.318945 -20.738705,-9.214088 -16.964033,0.189965 -30.630732,16.910417 -30.45713,37.118877 0.391033,37.066442 43.733425,68.687952 48.592685,72.090852 1.04087,0.78643 2.29961,1.20433 3.6011,1.20433 1.30155,0 2.51652,-0.47109 3.47091,-1.25372 4.90268,-3.61299 47.59486,-36.43845 47.24759,-73.504895 -0.15743,-20.208463 -14.14394,-36.490498 -31.10792,-36.228736"
       id="path66" />
  </g>
</svg>
