<?xml version="1.0" encoding="UTF-8" standalone="no"?>
<svg
   width="22.272337pt"
   height="22.2477pt"
   viewBox="0 0 22.272338 22.2477"
   version="1.1"
   id="svg1700"
   sodipodi:docname="output.svg"
   inkscape:version="1.1.2 (0a00cf5339, 2022-02-04)"
   xmlns:inkscape="http://www.inkscape.org/namespaces/inkscape"
   xmlns:sodipodi="http://sodipodi.sourceforge.net/DTD/sodipodi-0.dtd"
   xmlns="http://www.w3.org/2000/svg"
   xmlns:svg="http://www.w3.org/2000/svg">
  <sodipodi:namedview
     id="namedview1702"
     pagecolor="#523c75"
     bordercolor="#666666"
     borderopacity="1.0"
     inkscape:pageshadow="2"
     inkscape:pageopacity="0"
     inkscape:pagecheckerboard="false"
     inkscape:document-units="pt"
     showgrid="false"
     fit-margin-top="0"
     fit-margin-left="0"
     fit-margin-right="0"
     fit-margin-bottom="0"
     lock-margins="false"
     inkscape:snap-page="false"
     inkscape:zoom="0.90583645"
     inkscape:cx="280.40382"
     inkscape:cy="-215.82262"
     inkscape:window-width="1850"
     inkscape:window-height="1136"
     inkscape:window-x="0"
     inkscape:window-y="0"
     inkscape:window-maximized="1"
     inkscape:current-layer="layer8" />
  <defs
     id="defs1649">
    <clipPath
       id="clip1">
      <path
         d="M 0,0 H 595.27734 V 723 H 0 Z m 0,0"
         id="path1646" />
    </clipPath>
  </defs>
  <g
     clip-path="url(#clip1)"
     clip-rule="nonzero"
     id="g1653"
     transform="translate(-87.530345,-727.95837)" />
  <g
     inkscape:groupmode="layer"
     id="layer2"
     inkscape:label="Layer 1"
     style="display:none"
     transform="translate(-78.419505,-752.37846)"
     sodipodi:insensitive="true">
    <path
       style="fill:#ff4511;fill-opacity:1;fill-rule:nonzero;stroke:none"
       d="M 0,722.83594 H 595.27344 V 0 H 0 Z m 0,0"
       id="path1651"
       transform="translate(-9.1108388,24.420088)" />
  </g>
  <path
     style="fill:#33143d;fill-opacity:1;fill-rule:nonzero;stroke:none"
     d="m 79.913093,11.50536 c -0.44531,1.10937 -0.95312,2.36328 -0.9375,3.988279 0.008,0.44531 0.0117,1.05859 0.0117,1.73828 0.008,1.17578 0.0156,2.58594 0.0352,3.63281 l -7.65234,0.0899 -0.0352,-1.76563 c -0.0117,-0.40234 -0.20703,-0.78125 -0.55859,-1.07031 -0.42969,-0.35156 -1.00782,-0.51563 -1.50391,-0.42188 l -2.035148,0.32032 c -0.32422,0.0664 -0.66015,-0.0742 -0.83203,-0.34375 -0.11719,-0.1875 -0.16015,-0.67969 -0.0742,-0.92578 0.1836,-0.52735 0.0547,-1.10938 -0.3164,-1.49219 0.0898,-0.27344 0.043,-0.578129 -0.13282,-0.808599 l -0.043,-0.0586 0.16406,-0.79687 c 0.0312,-0.16797 -0.004,-0.33985 -0.10547,-0.48047 -0.10156,-0.13672 -0.25781,-0.22657 -0.42969,-0.24219 -0.4375,-0.0469 -0.82031,-0.16016 -1.10156,-0.33594 -0.0703,-0.043 -0.0898,-0.1289 -0.0508,-0.19531 l 1.49609,-2.5507803 c 0.0117,-0.0195 0.0234,-0.043 0.0312,-0.0625 0.16406,-0.375 0.15235,-0.80078 -0.0391,-1.16797 l -0.14844,-0.29688 c -0.0156,-0.0273 -0.0234,-0.0508 -0.0234,-0.0781 -0.0234,-1.32031 0.26563,-3.21094 1.76954,-4.72656 2.535138,-2.55468998 7.093738,-2.91796998 10.160138,-0.81641 2.12891,1.45703 3.02344,3.16797 3.09375,5.90625 0.0234,1.0625 -0.34765,1.9843803 -0.74219,2.9609403 m -1.66796,-9.8632803 c -3.52735,-2.41796998 -8.77735,-1.98827998 -11.699208,0.96093 -1.80469,1.81641 -2.14844,4.04688 -2.1211,5.59766 0.004,0.21094 0.0547,0.41797 0.15235,0.60938 l 0.15625,0.29687 c 0.0156,0.0352 0.0195,0.0742 0.008,0.11328 l -1.46875,2.5039103 c -0.37109,0.63281 -0.16406,1.45703 0.46094,1.83984 0.28125,0.17188 0.60156,0.30469 0.96093,0.39453 l -0.0703,0.33594 c -0.0508,0.25 0.008,0.507809 0.16016,0.707029 l 0.0117,0.0117 c -0.14453,0.35547 -0.0391,0.76953 0.26172,1.01172 l 0.0742,0.0586 c 0.0859,0.0703 0.0859,0.1875 0.0586,0.26953 -0.17969,0.51563 -0.15625,1.41407 0.1914,1.96875 0.4375,0.6836 1.26954,1.04297 2.0625,0.88672 l 2.031238,-0.32031 c 0.15625,-0.0312 0.38282,0.043 0.53125,0.16406 0.082,0.0664 0.11719,0.12891 0.11719,0.16407 l 0.0508,2.36328 c 0.008,0.33203 0.28125,0.59375 0.61328,0.58984 l 8.85938,-0.10547 c 0.16016,0 0.31641,-0.0664 0.42578,-0.18359 0.11328,-0.11719 0.17578,-0.27344 0.17188,-0.4375 -0.0312,-1.03125 -0.0391,-2.79688 -0.0469,-4.21485 -0.004,-0.68359 -0.008,-1.30078 -0.0117,-1.74609 -0.0156,-1.382809 0.42578,-2.472659 0.84766,-3.523439 0.42578,-1.05078 0.86328,-2.1328103 0.82812,-3.4453103 -0.0781,-3.13281 -1.16015,-5.1875 -3.61718,-6.87109"
     id="path1675" />
  <path
     style="fill:#33143d;fill-opacity:1;fill-rule:nonzero;stroke:none"
     d="m 71.186533,5.7201997 c 0.54688,-0.008 1.0586,0.27735 1.34375,0.73438 0.21875,0.36328 0.80078,0.37109 1.05078,-0.0117 0.26953,-0.46485 0.77735,-0.75781 1.32422,-0.76563 0.85156,-0.0117 1.55469,0.66016 1.5625,1.49219 0.0234,1.75391 -2.5664,3.6757803 -3.35937,4.2226603 -1.625,-1.05469 -3.4375,-2.7226603 -3.45313,-4.1445303 -0.0117,-0.83204 0.67578,-1.51563 1.53125,-1.52735 m 3.70703,-1.26953 c -0.69531,0.008 -1.35156,0.26953 -1.85547,0.73438 -0.51562,-0.45313 -1.17578,-0.69922 -1.86718,-0.69141 -1.52735,0.0195 -2.761708,1.26172 -2.742178,2.76953 0.0312,2.7656303 3.937488,5.1250003 4.374988,5.3789103 0.0937,0.0586 0.20703,0.0937 0.32422,0.0898 0.11328,0 0.22656,-0.0352 0.3125,-0.0898 0.4375,-0.26953 4.28515,-2.7226603 4.2539,-5.4882803 -0.0195,-1.50782 -1.27343,-2.71875 -2.80078,-2.70313"
     id="path1677" />
  <path
     style="fill:#33143d;fill-opacity:1;fill-rule:nonzero;stroke:none"
     d="m 49.944365,12.83739 c -1.20704,0.0156 -2.26563,-0.82031 -2.5586,-1.96094 l 5.0625,-0.0586 c -0.26562,1.14844 -1.30078,2.00781 -2.5039,2.01953 m -0.11719,-9.6523403 2.41797,6.41015 -4.6836,0.0547 z m -12.05078,6.58203 -4.67969,0.0547 2.26562,-6.46875 z m -2.30469,3.2421803 c -1.20703,0.0156 -2.26172,-0.82031 -2.55078,-1.96093 l 5.05469,-0.0586 c -0.26563,1.14453 -1.29688,2.00391 -2.50391,2.01953 m 18.27344,-2.91015 -3.36719,-8.9257803 c -0.0859,-0.22656998 -0.30078,-0.35937998 -0.55078,-0.35546998 -0.0508,-0.0195 -0.11719,-0.0391 -0.19531,-0.0391 l -14.30079,0.16796 c -0.17968,0.004 -0.34375,0.0859 -0.44531,0.22265998 l -0.0664,0.0234 -3.16797,9.0429703 -0.0352,0.21093 c 0.0234,2.11329 1.76172,3.8086 3.87109,3.78516 2.11329,-0.0234 3.8086,-1.76172 3.78516,-3.875 l -0.008,-0.0508 0.0117,-0.0352 -3.05469,-8.1054703 5.74219,-0.0664 0.21484,18.0663993 -6.62109,0.0781 c -0.33594,0.004 -0.60938,0.27734 -0.60547,0.61719 0.004,0.33984 0.28125,0.60937 0.62109,0.60547 l 14.46875,-0.16797 c 0.33594,-0.004 0.60938,-0.28125 0.60547,-0.6211 -0.004,-0.33984 -0.28125,-0.60937 -0.62109,-0.60547 l -6.6211,0.0781 -0.21484,-18.0664093 5.74609,-0.0664 -2.8164,8.0390603 -0.0352,0.22266 c 0.0234,2.10937 1.76172,3.80859 3.87109,3.78125 2.10938,-0.0234 3.80469,-1.76172 3.78125,-3.875 l -0.004,-0.043 z m 0,0"
     id="path1681" />
  <path
     style="fill:#ffffff;fill-opacity:1;fill-rule:nonzero;stroke:none"
     d="m 32.831075,-408.82277 v -4.73437 c 0,-0.27344 0.22657,-0.50391 0.5,-0.50391 h 46.531238 c 0.27344,0 0.50782,0.23047 0.50782,0.50391 v 4.73437 z m -0.0508,12.1875 v 2.61719 h -2.0664 v -11.57812 h 51.769518 v 11.57812 h -2.0625 v -2.61719 c 0,-0.89062 -0.72657,-1.61328 -1.61719,-1.61328 H 34.389655 c -0.89063,0 -1.60938,0.72266 -1.60938,1.61328 m 45.472648,-20.65234 H 34.932625 v -13.69531 h 43.320298 z m 5.83984,8.46484 h -0.50781 v -4.73437 c 0,-1.42578 -0.83594,-2.69922 -2.10547,-3.30469 v -17.84375 c 0,-0.89453 -0.72656,-1.62109 -1.61719,-1.62109 -0.88672,0 -1.60937,0.72656 -1.60937,1.62109 v 0.49609 H 34.932625 v -0.49609 c 0,-0.89453 -0.71875,-1.62109 -1.60157,-1.62109 -0.89062,0 -1.60937,0.72656 -1.60937,1.62109 v 17.83594 c -1.28125,0.60937 -2.12109,1.8789 -2.12109,3.3125 v 4.73437 h -0.50782 c -0.88281,0 -1.60547,0.72266 -1.60547,1.60547 v 14.82031 c 0,0.88282 0.72266,1.60547 1.60547,1.60547 h 5.29688 c 0.88281,0 1.60156,-0.72265 1.60156,-1.60547 v -2.61718 h 41.203108 v 2.61718 c 0,0.88282 0.72266,1.60547 1.60938,1.60547 h 5.28906 c 0.89063,0 1.60938,-0.72265 1.60938,-1.60547 v -14.82031 c 0,-0.88281 -0.71875,-1.60547 -1.60938,-1.60547"
     id="path1683" />
  <path
     style="fill:#ffffff;fill-opacity:1;fill-rule:nonzero;stroke:none"
     d="m 56.596705,-455.99464 c -23.39844,0 -42.43359,19.03515 -42.43359,42.43359 0,23.39844 19.03515,42.4336 42.43359,42.4336 23.394518,0 42.433578,-19.03516 42.433578,-42.4336 0,-23.39844 -19.03906,-42.43359 -42.433578,-42.43359 m 0,87.91015 c -25.07813,0 -45.47656,-20.39843 -45.47656,-45.47656 0,-25.07422 20.39843,-45.47656 45.47656,-45.47656 25.074208,0 45.476545,20.40234 45.476545,45.47656 0,25.07813 -20.402337,45.47656 -45.476545,45.47656"
     id="path1685" />
  <path
     style="fill:#ffffff;fill-opacity:1;fill-rule:nonzero;stroke:none"
     d="m 56.596705,-463.11964 c -27.32813,0 -49.5585902,22.23047 -49.5585902,49.55859 0,27.32813 22.2304602,49.5625 49.5585902,49.5625 27.324208,0 49.558575,-22.23437 49.558575,-49.5625 0,-27.32812 -22.234367,-49.55859 -49.558575,-49.55859 m 0,102.62109 c -29.25781,0 -53.0585902,-23.80469 -53.0585902,-53.0625 0,-29.25781 23.8007802,-53.05859 53.0585902,-53.05859 29.253888,0 53.058575,23.80078 53.058575,53.05859 0,29.25781 -23.804687,53.0625 -53.058575,53.0625"
     id="path1687" />
  <path
     style="fill:#e3007d;fill-opacity:1;fill-rule:nonzero;stroke:none"
     d="m -28.172825,48.962389 -0.0195,-1.79688 c 0,-0.10546 0.0859,-0.19531 0.1875,-0.19531 l 17.67969,-0.20703 c 0.10547,-0.004 0.19531,0.0859 0.19922,0.1875 l 0.0195,1.80078 z m 0.0352,4.63281 0.0117,0.9961 -0.78515,0.008 -0.0508,-4.40235 19.6718698,-0.23046 0.0547,4.39843 -0.7851498,0.0117 -0.0117,-0.99609 c -0.004,-0.33594 -0.28516,-0.60938 -0.625,-0.60547 l -16.875,0.19922 c -0.33594,0.004 -0.60938,0.28125 -0.60547,0.62109 m 17.1289,-13.25798 0.0586,5.20703 -16.46094,0.19141 -0.0586,-5.20313 z m 2.3163998,8.39453 -0.1914,0.004 -0.0234,-1.79688 c -0.004,-0.54297 -0.32813,-1.02344 -0.8125,-1.25 l -0.082,-6.78125 c -0.004,-0.33594 -0.2812498,-0.60937 -0.6210998,-0.60547 -0.33594,0.004 -0.60937,0.28516 -0.60547,0.6211 l 0.004,0.1914 -16.46093,0.19141 -0.004,-0.1875 c -0.004,-0.33984 -0.28125,-0.61328 -0.61719,-0.60938 -0.33594,0.004 -0.60547,0.28516 -0.60156,0.625 l 0.0781,6.77735 c -0.48438,0.23437 -0.79688,0.72265 -0.78907,1.26953 l 0.0195,1.79687 -0.1914,0.004 c -0.33594,0.004 -0.60938,0.28125 -0.60547,0.61719 l 0.0664,5.6289 c 0.004,0.33594 0.28125,0.60938 0.61719,0.60547 l 2.01172,-0.0273 c 0.33593,-0.004 0.60937,-0.28125 0.60546,-0.61719 l -0.0117,-0.99219 15.65625,-0.18359 0.0117,0.99219 c 0.004,0.33594 0.28125,0.60547 0.61719,0.60156 l 2.0117198,-0.0234 c 0.33594,-0.004 0.60938,-0.28125 0.60547,-0.61718 l -0.0703,-5.62891 c -0.004,-0.33594 -0.27734,-0.60938 -0.61719,-0.60547"
     id="path1689" />
  <path
     style="fill:#e3007d;fill-opacity:1;fill-rule:nonzero;stroke:none"
     d="m 81.252943,45.091299 c -0.44922,1.10546 -0.95703,2.36328 -0.94141,3.98828 0.008,0.44531 0.0117,1.05859 0.0156,1.73828 0.004,1.17578 0.0117,2.58594 0.0312,3.63281 l -7.64844,0.0898 -0.0391,-1.76562 c -0.008,-0.40234 -0.20703,-0.78516 -0.5586,-1.07422 -0.42968,-0.34766 -1.00781,-0.51172 -1.5039,-0.42187 l -2.03516,0.32421 c -0.324208,0.0625 -0.660148,-0.0742 -0.832018,-0.34375 -0.11719,-0.1875 -0.15625,-0.68359 -0.0742,-0.92578 0.18359,-0.53125 0.0547,-1.10937 -0.31641,-1.49218 0.0898,-0.27344 0.043,-0.57813 -0.13281,-0.8086 l -0.043,-0.0586 0.16407,-0.79688 c 0.0352,-0.16797 -0.004,-0.34375 -0.10547,-0.48047 -0.10157,-0.13671 -0.25782,-0.22656 -0.42578,-0.24218 -0.44141,-0.0469 -0.82422,-0.16016 -1.10547,-0.33594 -0.0703,-0.043 -0.0898,-0.12891 -0.0508,-0.19531 l 1.49609,-2.55078 c 0.0117,-0.0195 0.0234,-0.043 0.0312,-0.0625 0.16406,-0.37891 0.15234,-0.80469 -0.0352,-1.17188 l -0.1521,-0.29292 c -0.0156,-0.0273 -0.0195,-0.0547 -0.0195,-0.082 -0.0273,-1.31641 0.26172,-3.20703 1.765608,-4.72656 2.53516,-2.55078 7.09375,-2.91797 10.16016,-0.8125 2.12891,1.45703 3.02344,3.16797 3.09375,5.90234 0.0273,1.0625 -0.34766,1.98828 -0.73828,2.96485 m -1.67188,-9.86329 c -3.52734,-2.41796 -8.77734,-1.98828 -11.699208,0.95704 -1.80468,1.82031 -2.14843,4.05078 -2.12109,5.59765 0.004,0.21485 0.0547,0.42188 0.15625,0.61328 l 0.15234,0.29688 c 0.0156,0.0352 0.0195,0.0742 0.0117,0.11328 l -1.47265,2.50391 c -0.3711,0.6289 -0.16407,1.45703 0.46093,1.83984 0.28125,0.17187 0.60157,0.30469 0.96094,0.39062 l -0.0703,0.33985 c -0.0508,0.24609 0.008,0.5039 0.16016,0.70703 l 0.0117,0.0117 c -0.14453,0.35547 -0.0391,0.76953 0.26172,1.01172 l 0.0742,0.0586 c 0.0859,0.0703 0.0859,0.1875 0.0586,0.26953 -0.17969,0.51172 -0.15625,1.41406 0.19531,1.96485 0.43359,0.6875 1.26562,1.04687 2.058578,0.89062 l 2.03125,-0.32031 c 0.15625,-0.0312 0.38281,0.043 0.53125,0.16406 0.082,0.0664 0.11719,0.12891 0.11719,0.16406 l 0.0508,2.35938 c 0.008,0.33203 0.28125,0.59765 0.61328,0.59375 l 8.85938,-0.10547 c 0.16015,0 0.3164,-0.0703 0.42968,-0.18359 0.10938,-0.11719 0.17188,-0.27735 0.16797,-0.4375 -0.0312,-1.03125 -0.0391,-2.79688 -0.0469,-4.21875 -0.004,-0.67969 -0.008,-1.29688 -0.0117,-1.74219 -0.0156,-1.38281 0.42578,-2.47266 0.85156,-3.52735 0.42188,-1.04687 0.85938,-2.1289 0.82422,-3.4414 -0.0781,-3.13281 -1.16016,-5.1875 -3.61719,-6.8711"
     id="path1691" />
  <path
     style="fill:#e3007d;fill-opacity:1;fill-rule:nonzero;stroke:none"
     d="m 72.522473,39.306139 c 0.54687,-0.008 1.0625,0.27344 1.34375,0.73437 0.22266,0.36329 0.80469,0.3711 1.05078,-0.0117 0.26953,-0.46875 0.78125,-0.76172 1.32813,-0.76954 0.84765,-0.008 1.55078,0.66016 1.55859,1.4961 0.0234,1.75 -2.56641,3.67578 -3.35547,4.21875 -1.62891,-1.05078 -3.44141,-2.71875 -3.45703,-4.14063 -0.0117,-0.83203 0.67578,-1.51953 1.53125,-1.52734 m 3.70703,-1.26953 c -0.69531,0.008 -1.35156,0.26953 -1.85547,0.73047 -0.51562,-0.44922 -1.17578,-0.69532 -1.86719,-0.6875 -1.52734,0.0156 -2.75781,1.26172 -2.74218,2.76953 0.0352,2.76562 3.9375,5.125 4.375,5.3789 0.0937,0.0586 0.20703,0.0898 0.32422,0.0898 0.11718,0 0.22656,-0.0352 0.3125,-0.0937 0.4414,-0.26953 4.28515,-2.71875 4.2539,-5.48438 -0.0156,-1.50781 -1.27344,-2.72265 -2.80078,-2.70312"
     id="path1693" />
  <path
     style="fill:#e3007d;fill-opacity:1;fill-rule:nonzero;stroke:none"
     d="m 20.616235,41.599109 0.15235,12.75 -5.40235,0.0625 -0.10937,-8.9961 c -0.004,-0.33593 -0.28125,-0.60546 -0.61719,-0.60156 l -4.42578,0.0508 c -0.3359402,0.004 -0.6093702,0.28125 -0.6054702,0.61719 l 0.10547,8.99609 -5.40234,0.0625 -0.15235,-12.75 c 0,-0.0195 0,-0.0391 0,-0.0586 l 8.1484402,-6.74609 8.3125,6.55078 c 0,0.0195 -0.004,0.043 -0.004,0.0625 m -6.47656,12.82812 -3.19922,0.0391 -0.0977,-8.38282 3.19531,-0.0391 z m 8.84765,-0.0664 -0.99218,0.008 -0.14063,-11.85938 0.61328,0.48047 c 0.25782,0.21485 0.6875,0.14453 0.85547,-0.0937 0.10547,-0.125 0.15235,-0.28906 0.13672,-0.45312 -0.0195,-0.16406 -0.10547,-0.3125 -0.23047,-0.41406 l -10.54687,-8.3086 c -0.22266,-0.18359 -0.5586,-0.17578 -0.77344,0.004 l -10.3476602,8.55859 c -0.125,0.10156 -0.20703,0.25391 -0.22265,0.41797 -0.0156,0.16016 0.0391,0.32813 0.13672,0.44141 0.10546,0.13281 0.2539,0.21093 0.41796,0.22656 0.17188,0.0117 0.32422,-0.0352 0.44922,-0.13672 l 0.60547,-0.5 0.13672,11.86328 -0.99219,0.0117 c -0.33984,0.004 -0.61328,0.28125 -0.60937,0.62109 0.004,0.33594 0.28515,0.60938 0.62109,0.60157 l 20.8984402,-0.2461 c 0.33984,-0.004 0.60937,-0.28125 0.60547,-0.61718 -0.004,-0.33594 -0.28125,-0.60938 -0.6211,-0.60547"
     id="path1695" />
  <path
     style="fill:#e3007d;fill-opacity:1;fill-rule:nonzero;stroke:none"
     d="m 51.280295,46.423329 c -1.20703,0.0156 -2.26172,-0.82032 -2.55468,-1.96094 l 5.05859,-0.0586 c -0.26563,1.14453 -1.30078,2.0039 -2.50391,2.01953 m -0.11328,-9.65625 2.41406,6.41406 -4.68359,0.0547 z m -12.05469,6.58203 -4.67968,0.0547 2.26562,-6.46485 z m -2.30078,3.24609 c -1.21093,0.0117 -2.26172,-0.82031 -2.55468,-1.96094 l 5.05859,-0.0625 c -0.26563,1.14844 -1.30078,2.00782 -2.50391,2.02344 m 18.26953,-2.91015 -3.36718,-8.92579 c -0.0859,-0.22656 -0.29688,-0.35937 -0.55079,-0.35937 -0.0508,-0.0156 -0.11328,-0.0352 -0.1914,-0.0352 l -14.30469,0.16797 c -0.17969,0.004 -0.33984,0.0859 -0.44531,0.21875 l -0.0664,0.0234 -3.16797,9.04687 -0.0352,0.21094 c 0.0234,2.11328 1.76172,3.8086 3.875,3.78516 2.10937,-0.0273 3.80469,-1.76172 3.78125,-3.875 l -0.004,-0.0508 0.008,-0.0391 -3.05468,-8.10156 5.74609,-0.0664 0.21094,18.0625 -6.61719,0.0781 c -0.33984,0.004 -0.61328,0.28125 -0.60937,0.62109 0.004,0.33985 0.28125,0.60938 0.62109,0.60547 l 14.46875,-0.17187 c 0.33984,-0.004 0.60937,-0.28125 0.60547,-0.61719 -0.004,-0.33984 -0.28125,-0.61328 -0.6211,-0.60937 l -6.62109,0.0781 -0.21484,-18.0625 5.74609,-0.0664 -2.81641,8.03907 -0.0352,0.21875 c 0.0234,2.11328 1.76172,3.8125 3.87109,3.78515 2.10938,-0.0234 3.80469,-1.76172 3.78125,-3.875 l -0.004,-0.043 z m 0,0"
     id="path1697" />
  <g
     inkscape:groupmode="layer"
     id="layer3"
     inkscape:label="IKONA 1"
     style="display:none"
     transform="translate(-78.419505,-752.37846)"
     sodipodi:insensitive="true">
    <path
       style="fill:#ffffff;fill-opacity:1;fill-rule:nonzero;stroke:none"
       d="m 135.01621,155.04397 c -23.39844,0 -42.433587,19.03516 -42.433587,42.4336 0,23.39844 19.035147,42.43359 42.433587,42.43359 23.39453,0 42.43359,-19.03515 42.43359,-42.43359 0,-23.39844 -19.03906,-42.4336 -42.43359,-42.4336 m 0,87.91016 c -25.07813,0 -45.476557,-20.39844 -45.476557,-45.47656 0,-25.07422 20.398427,-45.47656 45.476557,-45.47656 25.07422,0 45.47656,20.40234 45.47656,45.47656 0,25.07812 -20.40234,45.47656 -45.47656,45.47656"
       id="path1657" />
    <path
       style="fill:#ffffff;fill-opacity:1;fill-rule:nonzero;stroke:none"
       d="m 111.25058,202.21585 v -4.73438 c 0,-0.27343 0.22657,-0.5039 0.5,-0.5039 h 46.53125 c 0.27344,0 0.50782,0.23047 0.50782,0.5039 v 4.73438 z m -0.0508,12.1875 v 2.61719 h -2.0664 v -11.57813 h 51.76953 v 11.57813 h -2.0625 v -2.61719 c 0,-0.89063 -0.72657,-1.61328 -1.61719,-1.61328 h -44.41406 c -0.89063,0 -1.60938,0.72265 -1.60938,1.61328 m 45.47266,-20.65234 h -43.32031 v -13.69532 h 43.32031 z m 5.83984,8.46484 h -0.50781 v -4.73438 c 0,-1.42578 -0.83594,-2.69921 -2.10547,-3.30859 v -17.83984 c 0,-0.89453 -0.72656,-1.6211 -1.61719,-1.6211 -0.88672,0 -1.60937,0.72657 -1.60937,1.6211 v 0.49609 h -43.32031 v -0.49609 c 0,-0.89453 -0.71875,-1.6211 -1.60157,-1.6211 -0.89062,0 -1.60937,0.72657 -1.60937,1.6211 v 17.83593 c -1.28125,0.60938 -2.12109,1.87891 -2.12109,3.3125 v 4.73438 h -0.50782 c -0.88281,0 -1.60547,0.72266 -1.60547,1.60547 v 14.82031 c 0,0.88281 0.72266,1.60156 1.60547,1.60156 h 5.29688 c 0.88281,0 1.60156,-0.71875 1.60156,-1.60156 v -2.61719 h 41.20312 v 2.61719 c 0,0.88281 0.72266,1.60156 1.60938,1.60156 h 5.28906 c 0.89063,0 1.60938,-0.71875 1.60938,-1.60156 v -14.82031 c 0,-0.88281 -0.71875,-1.60547 -1.60938,-1.60547"
       id="path1655" />
  </g>
  <g
     inkscape:groupmode="layer"
     id="layer4"
     inkscape:label="Ikona 2"
     style="display:none"
     transform="translate(11.120145,-600.37745)"
     sodipodi:insensitive="true">
    <path
       style="fill:#ffffff;fill-opacity:1;fill-rule:nonzero;stroke:none"
       d="M 175.82031,33.09375 V 66.64843 H 161.60156 V 42.97265 c 0,-0.88672 -0.72266,-1.60937 -1.60938,-1.60937 h -11.64453 c -0.89062,0 -1.61328,0.72265 -1.61328,1.60937 V 66.64843 H 132.51171 V 33.09375 c 0,-0.0508 -0.004,-0.10938 -0.008,-0.16407 l 21.66016,-17.49218 21.66406,17.49218 c -0.004,0.0547 -0.008,0.11328 -0.008,0.16407 m -17.44531,33.55468 h -8.41797 V 44.58984 h 8.41797 z m 23.28515,0.0937 h -2.61719 V 35.52338 l 1.60157,1.29297 c 0.67968,0.57422 1.80859,0.39453 2.25781,-0.22265 0.27734,-0.32813 0.41406,-0.75782 0.36719,-1.1875 -0.043,-0.4336 -0.26563,-0.83204 -0.58985,-1.09375 L 155.19102,12.11323 c -0.58984,-0.48828 -1.46484,-0.47266 -2.03906,-0.0117 l -27.48828,22.20312 c -0.33985,0.26172 -0.5586,0.66407 -0.60547,1.09375 -0.043,0.42188 0.0898,0.86328 0.34375,1.16797 0.27734,0.34766 0.66406,0.5625 1.09766,0.60938 0.44921,0.0352 0.85546,-0.0898 1.18359,-0.35157 l 1.60156,-1.30078 v 31.21875 h -2.61328 c -0.89453,0 -1.62109,0.73047 -1.62109,1.6211 0,0.88672 0.72656,1.60547 1.62109,1.60547 h 54.98828 c 0.89453,0 1.61719,-0.71875 1.61719,-1.60547 0,-0.89063 -0.72266,-1.6211 -1.61719,-1.6211"
       id="path1665" />
    <path
       style="fill:#ffffff;fill-opacity:1;fill-rule:nonzero;stroke:none"
       d="m 154.16406,3.04296 c -23.39844,0 -42.4336,19.03516 -42.4336,42.4336 0,23.39844 19.03516,42.43359 42.4336,42.43359 23.39844,0 42.43359,-19.03515 42.43359,-42.43359 0,-23.39844 -19.03515,-42.4336 -42.43359,-42.4336 m 0,87.91016 c -25.07813,0 -45.47656,-20.39844 -45.47656,-45.47656 C 108.6875,20.40234 129.08593,0 154.16406,0 c 25.07422,0 45.47656,20.40234 45.47656,45.47656 0,25.07812 -20.40234,45.47656 -45.47656,45.47656"
       id="path1667" />
  </g>
  <g
     inkscape:groupmode="layer"
     id="layer5"
     inkscape:label="ikona 3"
     style="display:none"
     sodipodi:insensitive="true"
     transform="translate(119.80764,-600.37745)">
    <path
       style="fill:#ffffff;fill-opacity:1;fill-rule:nonzero;stroke:none"
       d="m 173.19531,50.21875 c -3.17969,0 -5.92969,-2.23047 -6.66406,-5.23829 h 13.3164 c -0.73437,3.00782 -3.48047,5.23829 -6.65234,5.23829 m 0,-25.41016 6.16015,16.94531 H 167.02734 Z M 141.27343,41.7539 h -12.3125 l 6.15625,-16.94531 z m -6.15625,8.46485 c -3.17968,0 -5.92578,-2.23047 -6.65625,-5.23829 h 13.3086 c -0.73438,3.00782 -3.48047,5.23829 -6.65235,5.23829 m 48.16797,-7.08985 -8.58203,-23.58984 c -0.21875,-0.60156 -0.77734,-0.95703 -1.44141,-0.95703 -0.13281,-0.0508 -0.30078,-0.10547 -0.50781,-0.10547 h -37.63672 c -0.48047,0 -0.90625,0.21875 -1.17968,0.5664 l -0.17579,0.0586 -8.61718,23.69922 -0.10157,0.55859 c 0,5.55859 4.51954,10.07813 10.07422,10.07813 5.55469,0 10.07422,-4.51954 10.07422,-10.07813 l -0.0117,-0.13281 0.0312,-0.0977 -7.78906,-21.41797 h 15.11719 v 47.53907 h -17.42188 c -0.89062,0 -1.62109,0.72265 -1.62109,1.61328 0,0.89062 0.73047,1.61328 1.62109,1.61328 h 38.07813 c 0.88672,0 1.60547,-0.72266 1.60547,-1.61328 0,-0.89063 -0.71875,-1.61328 -1.60547,-1.61328 h -17.4336 V 21.71089 h 15.125 l -7.66796,21.07032 -0.0977,0.57812 c 0,5.55859 4.51562,10.07813 10.07422,10.07813 5.55078,0 10.0625,-4.51954 10.0625,-10.07813 l -0.004,-0.11719 z m 0,0"
       id="path1669" />
    <path
       style="fill:#ffffff;fill-opacity:1;fill-rule:nonzero;stroke:none"
       d="m 154.16406,3.04296 c -23.39453,0 -42.4336,19.03516 -42.4336,42.4336 0,23.39844 19.03907,42.43359 42.4336,42.43359 23.39844,0 42.43359,-19.03515 42.43359,-42.43359 0,-23.39844 -19.03515,-42.4336 -42.43359,-42.4336 m 0,87.91016 c -25.07422,0 -45.47656,-20.39844 -45.47656,-45.47656 C 108.6875,20.40234 129.08984,0 154.16406,0 c 25.07812,0 45.47656,20.40234 45.47656,45.47656 0,25.07812 -20.39844,45.47656 -45.47656,45.47656"
       id="path1671" />
  </g>
  <g
     inkscape:groupmode="layer"
     id="layer6"
     inkscape:label="ikona 4"
     transform="translate(119.80764,-600.37745)"
     sodipodi:insensitive="true"
     style="display:none">
    <path
       style="fill:#ffffff;fill-opacity:1;fill-rule:nonzero;stroke:none"
       d="m 281.10156,45.65234 c -1.21485,2.90234 -2.58594,6.19531 -2.58985,10.47266 -0.004,1.16796 -0.0117,2.78515 -0.0234,4.57031 -0.0195,3.08984 -0.0469,6.80469 -0.0274,9.55469 H 258.3281 l -0.043,-4.64454 c -0.0117,-1.05859 -0.52344,-2.0664 -1.4375,-2.83593 -1.11719,-0.9336 -2.6289,-1.37891 -3.9375,-1.15625 l -5.37109,0.78515 c -0.85547,0.15625 -1.73438,-0.21875 -2.17578,-0.93359 -0.3086,-0.5 -0.39844,-1.79688 -0.16407,-2.4375 0.4961,-1.38672 0.17579,-2.91797 -0.79296,-3.9375 0.24609,-0.71484 0.13281,-1.51953 -0.32422,-2.13281 l -0.10938,-0.15235 0.45313,-2.09375 c 0.0976,-0.4414 0,-0.89843 -0.26172,-1.26562 -0.26172,-0.36328 -0.66406,-0.60156 -1.11328,-0.65235 -1.15235,-0.13281 -2.15625,-0.44921 -2.89844,-0.91796 -0.17578,-0.10938 -0.23047,-0.33985 -0.12109,-0.51954 l 4.01171,-6.66015 c 0.0352,-0.0508 0.0625,-0.10938 0.0899,-0.16797 0.44531,-0.98438 0.42187,-2.10547 -0.0625,-3.07422 l -0.39453,-0.78516 c -0.0312,-0.0703 -0.0508,-0.13671 -0.0508,-0.20703 -0.0195,-3.47265 0.79687,-8.4375 4.80468,-12.38281 6.74219,-6.63672 18.7461,-7.45703 26.75391,-1.82812 5.55469,3.90234 7.85937,8.43359 7.95703,15.6289 0.0352,2.80078 -0.97266,5.21485 -2.03906,7.77344 M 277.0156,19.64843 c -9.21094,-6.46875 -23.03125,-5.5 -30.81641,2.16407 -4.80078,4.72265 -5.77734,10.58203 -5.7539,14.66406 0.004,0.5625 0.13281,1.10547 0.38672,1.61328 l 0.39453,0.78516 c 0.043,0.0898 0.0508,0.19531 0.0234,0.29296 l -3.94532,6.54297 c -0.99218,1.65235 -0.47656,3.83203 1.15235,4.85547 0.73437,0.46485 1.57812,0.82031 2.51562,1.06641 l -0.19531,0.89062 c -0.13672,0.64844 0.0117,1.32813 0.40234,1.85547 l 0.0274,0.0352 c -0.38672,0.92969 -0.125,2.02734 0.66406,2.67187 l 0.19141,0.16016 c 0.22656,0.18359 0.21484,0.49609 0.14062,0.70312 -0.48437,1.35157 -0.44922,3.71875 0.45313,5.1836 1.12109,1.82031 3.30078,2.78906 5.39843,2.40234 l 5.34375,-0.78125 c 0.41797,-0.0742 1.01563,0.125 1.40235,0.45313 0.20703,0.17578 0.30078,0.33984 0.30078,0.42968 l 0.0625,6.22266 c 0.008,0.87109 0.71875,1.57422 1.58984,1.57422 h 23.3125 c 0.42578,0 0.83594,-0.17188 1.13281,-0.47656 0.30079,-0.30469 0.46485,-0.71485 0.45704,-1.14063 -0.043,-2.71484 -0.0117,-7.36328 0.0117,-11.10156 0.0117,-1.79297 0.0234,-3.41406 0.0234,-4.58984 0.004,-3.64063 1.19531,-6.49219 2.34375,-9.2461 1.14453,-2.74609 2.33203,-5.58203 2.28516,-9.03906 -0.10938,-8.24609 -2.89453,-13.6875 -9.30469,-18.19141"
       id="path1659" />
    <path
       style="fill:#ffffff;fill-opacity:1;fill-rule:nonzero;stroke:none"
       d="m 258.3125,30.16015 c 1.4375,0 2.78125,0.75781 3.51171,1.97656 0.57422,0.96094 2.10157,1.00391 2.76954,0 0.72656,-1.21875 2.07031,-1.97656 3.51171,-1.97656 2.23829,0 4.0625,1.78516 4.0625,3.97656 0,4.61329 -6.87109,9.59375 -8.96875,11.00391 -4.24609,-2.82031 -8.96093,-7.26562 -8.96093,-11.00391 0,-2.1914 1.82812,-3.97656 4.07422,-3.97656 m 9.79296,-3.22656 c -1.82421,0 -3.5625,0.67187 -4.90234,1.875 -1.33984,-1.20313 -3.07422,-1.875 -4.89062,-1.875 -4.02344,0 -7.30079,3.23437 -7.30079,7.20312 0,7.27735 10.19922,13.60547 11.33985,14.28907 0.25,0.15625 0.54687,0.24609 0.85156,0.24609 0.30469,0 0.60156,-0.0898 0.82813,-0.23047 1.16406,-0.69922 11.36328,-7.02734 11.36328,-14.30469 0,-3.96875 -3.26953,-7.20312 -7.28907,-7.20312"
       id="path1661" />
    <path
       style="fill:#ffffff;fill-opacity:1;fill-rule:nonzero;stroke:none"
       d="m 262.85546,3.04296 c -23.39843,0 -42.43359,19.03516 -42.43359,42.4336 0,23.39844 19.03516,42.43359 42.43359,42.43359 23.39454,0 42.4336,-19.03515 42.4336,-42.43359 0,-23.39844 -19.03906,-42.4336 -42.4336,-42.4336 m 0,87.91016 C 237.77734,90.95312 217.375,70.55468 217.375,45.47656 217.375,20.40234 237.77734,0 262.85546,0 c 25.07422,0 45.47657,20.40234 45.47657,45.47656 0,25.07812 -20.40235,45.47656 -45.47657,45.47656"
       id="path1663" />
  </g>
  <g
     inkscape:groupmode="layer"
     id="layer7"
     inkscape:label="glyph 1"
     transform="translate(337.18264,-600.37745)"
     style="display:none"
     sodipodi:insensitive="true">
    <path
       style="fill:#33143d;fill-opacity:1;fill-rule:nonzero;stroke:none"
       d="m -366.6914,615.75781 -0.0195,-1.80078 c 0,-0.10547 0.082,-0.19141 0.1875,-0.19532 l 17.67968,-0.20703 c 0.10547,0 0.19532,0.0859 0.19532,0.19141 l 0.0234,1.79687 z m 0.0352,4.6289 0.0117,0.9961 -0.78516,0.008 -0.0508,-4.39844 19.67187,-0.23437 0.0547,4.40234 -0.78515,0.008 -0.0117,-0.99218 c -0.008,-0.33985 -0.28516,-0.60938 -0.625,-0.60547 l -16.875,0.19922 c -0.33985,0.004 -0.60938,0.28125 -0.60547,0.61718 m 17.125,-13.2539 0.0625,5.20312 -16.46094,0.19532 -0.0625,-5.20313 z m 2.32031,8.39453 h -0.19531 l -0.0195,-1.79688 c -0.008,-0.54296 -0.32813,-1.02343 -0.81641,-1.25 l -0.0781,-6.77734 c -0.004,-0.33984 -0.28515,-0.61328 -0.62109,-0.60937 -0.33985,0.004 -0.60938,0.28515 -0.60547,0.625 l 0.004,0.1875 -16.46094,0.19531 -0.004,-0.19141 c -0.004,-0.33984 -0.28125,-0.61328 -0.61719,-0.60937 -0.33593,0.004 -0.60937,0.28515 -0.60546,0.625 l 0.082,6.77734 c -0.48438,0.23828 -0.79688,0.72266 -0.78907,1.26953 l 0.0195,1.79688 -0.1914,0.004 c -0.33985,0.004 -0.60938,0.28125 -0.60547,0.61719 l 0.0664,5.62891 c 0.004,0.33593 0.28125,0.60937 0.61718,0.60547 l 2.01172,-0.0234 c 0.33594,-0.004 0.60938,-0.28125 0.60547,-0.61719 l -0.0117,-0.99609 15.65625,-0.1836 0.0117,0.99219 c 0.004,0.33594 0.27735,0.60938 0.61719,0.60547 l 2.01172,-0.0234 c 0.33594,-0.004 0.60547,-0.28125 0.60156,-0.61719 l -0.0664,-5.63281 c -0.004,-0.33594 -0.28125,-0.60547 -0.61719,-0.60156"
       id="path1673" />
  </g>
  <g
     inkscape:groupmode="layer"
     id="layer8"
     inkscape:label="glyph 2"
     transform="translate(-31.532207,4.7166383)">
    <path
       style="fill:#33143d;fill-opacity:1;fill-rule:nonzero;stroke:none"
       d="m 50.812512,3.2965314 0.15234,12.7499996 -5.40625,0.0664 -0.10547,-8.9999996 c -0.004,-0.33594 -0.28125,-0.60547 -0.61719,-0.60157 l -4.42578,0.0508 c -0.33984,0.004 -0.60937,0.28125 -0.60547,0.61718 l 0.10547,8.9999996 -5.40234,0.0625 -0.15234,-12.7499996 c 0,-0.0195 0,-0.043 -0.004,-0.0625 l 8.15234,-6.74609 8.3125,6.55078 c -0.004,0.0195 -0.004,0.043 -0.004,0.0625 m -6.48047,12.8281296 -3.19531,0.0391 -0.10156,-8.3828096 3.19922,-0.0352 z m 8.85156,-0.0664 -0.99609,0.0117 -0.13672,-11.8632796 0.60938,0.48437 c 0.26172,0.21485 0.6914,0.14063 0.85937,-0.0976 0.10546,-0.125 0.15234,-0.28907 0.13281,-0.45313 -0.0156,-0.16406 -0.10157,-0.3125 -0.22656,-0.41016 l -10.54687,-8.3125 c -0.22657,-0.18359 -0.5586,-0.17578 -0.77344,0.004 l -10.34766,8.55859 c -0.125,0.10157 -0.20703,0.25782 -0.22265,0.41797 -0.0156,0.16407 0.0352,0.32813 0.13672,0.44532 0.10546,0.1289 0.2539,0.21093 0.41796,0.22265 0.17188,0.0156 0.32422,-0.0351 0.44532,-0.13672 l 0.60547,-0.5 0.14062,11.8632796 -0.99609,0.0117 c -0.33594,0.004 -0.60938,0.28516 -0.60547,0.6211 0.004,0.33593 0.28515,0.60937 0.62109,0.60547 l 20.89844,-0.2461 c 0.33593,-0.004 0.60937,-0.28125 0.60546,-0.61719 -0.004,-0.33984 -0.28125,-0.61328 -0.62109,-0.60937"
       id="path1679" />
  </g>
  <g
     inkscape:groupmode="layer"
     id="layer9"
     inkscape:label="glyph 3"
     sodipodi:insensitive="true"
     transform="translate(-31.532207,4.7166383)" />
  <g
     inkscape:groupmode="layer"
     id="layer10"
     inkscape:label="glyph 4"
     sodipodi:insensitive="true"
     transform="translate(-31.532207,4.7166383)" />
</svg>
