<?xml version="1.0" encoding="UTF-8" standalone="no"?>
<!-- Created with Inkscape (http://www.inkscape.org/) -->

<svg
   width="210mm"
   height="297mm"
   viewBox="0 0 210 297"
   version="1.1"
   id="svg234"
   inkscape:version="1.1.2 (0a00cf5339, 2022-02-04)"
   sodipodi:docname="socjalna_glyph_pink.svg.svg"
   xmlns:inkscape="http://www.inkscape.org/namespaces/inkscape"
   xmlns:sodipodi="http://sodipodi.sourceforge.net/DTD/sodipodi-0.dtd"
   xmlns="http://www.w3.org/2000/svg"
   xmlns:svg="http://www.w3.org/2000/svg">
  <sodipodi:namedview
     id="namedview236"
     pagecolor="#ffffff"
     bordercolor="#666666"
     borderopacity="1.0"
     inkscape:pageshadow="2"
     inkscape:pageopacity="0.0"
     inkscape:pagecheckerboard="0"
     inkscape:document-units="mm"
     showgrid="false"
     inkscape:zoom="0.64052329"
     inkscape:cx="397.33138"
     inkscape:cy="561.25984"
     inkscape:window-width="1850"
     inkscape:window-height="1136"
     inkscape:window-x="0"
     inkscape:window-y="0"
     inkscape:window-maximized="1"
     inkscape:current-layer="layer1" />
  <defs
     id="defs231" />
  <g
     inkscape:label="Warstwa 1"
     inkscape:groupmode="layer"
     id="layer1">
    <path
       style="fill:#e3007d;fill-opacity:1;fill-rule:nonzero;stroke:none;stroke-width:11.2122"
       d="m 183.59281,109.81973 -1.20105,169.86919 -50.98235,0.0434 0.82975,-119.856 c 0.0323,-4.47567 -2.52826,-8.10641 -5.69849,-8.10367 l -41.766348,0.0309 c -3.170045,-0.0115 -5.807449,3.65712 -5.840123,8.13354 l -0.866386,119.85541 -50.982327,0.0434 1.201091,-169.86919 c 0.004,-0.26437 0.0081,-0.5211 0.01208,-0.78168 l 78.27391,-88.679358 77.07033,88.476808 c -0.004,0.26439 -0.0465,0.5734 -0.0505,0.83016 m -63.75881,169.94412 -30.191742,0.0548 0.813294,-111.68463 30.154848,-0.0554 z m 83.48854,0.40593 -9.36262,-0.0309 1.12723,-158.00327 5.68668,6.48993 c 2.3879,2.89989 6.45645,2.02604 8.09052,-1.12521 1.021,-1.64988 1.49731,-3.82829 1.38361,-6.01621 -0.15057,-2.18923 -0.93048,-4.17816 -2.08888,-5.5494 L 110.37167,3.708097 c -2.06276,-2.4793819 -5.2338,-2.4225957 -7.29773,-0.074828 L 3.6760365,116.13706 c -1.2004072,1.33363 -2.0059379,3.35325 -2.1872289,5.53546 -0.1802279,2.13124 0.3006315,4.37694 1.1985242,5.90012 0.9676342,1.78636 2.3518171,2.84643 3.8965343,3.07805 1.6191419,0.17603 3.0661695,-0.42099 4.2664969,-1.75463 l 5.815876,-6.57247 -1.164963,158.05478 -9.3633038,0.006 c -3.2069291,-0.0117 -5.84430571,3.65652 -5.87777968,8.1847 -0.0320703,4.47567 2.56426478,8.15948 5.73534318,8.10419 l 197.2211543,-0.2317 c 3.20685,0.0116 5.8074,-3.65714 5.84011,-8.13317 0.0319,-4.47568 -2.52743,-8.15892 -5.7346,-8.15633"
       id="path68" />
  </g>
</svg>
