<?xml version="1.0" encoding="UTF-8" standalone="no"?>
<!-- Created with Inkscape (http://www.inkscape.org/) -->

<svg
   width="7.8572197mm"
   height="7.8471599mm"
   viewBox="0 0 7.8572197 7.8471599"
   version="1.1"
   id="svg603"
   inkscape:version="1.1.2 (0a00cf5339, 2022-02-04)"
   sodipodi:docname="socjalna_glyph_pink.svg"
   xmlns:inkscape="http://www.inkscape.org/namespaces/inkscape"
   xmlns:sodipodi="http://sodipodi.sourceforge.net/DTD/sodipodi-0.dtd"
   xmlns="http://www.w3.org/2000/svg"
   xmlns:svg="http://www.w3.org/2000/svg">
  <sodipodi:namedview
     id="namedview605"
     pagecolor="#ffffff"
     bordercolor="#666666"
     borderopacity="1.0"
     inkscape:pageshadow="2"
     inkscape:pageopacity="0.0"
     inkscape:pagecheckerboard="0"
     inkscape:document-units="mm"
     showgrid="false"
     fit-margin-top="0"
     fit-margin-left="0"
     fit-margin-right="0"
     fit-margin-bottom="0"
     inkscape:zoom="0.64052329"
     inkscape:cx="543.30577"
     inkscape:cy="562.82107"
     inkscape:window-width="1850"
     inkscape:window-height="1136"
     inkscape:window-x="0"
     inkscape:window-y="0"
     inkscape:window-maximized="1"
     inkscape:current-layer="layer1" />
  <defs
     id="defs600" />
  <g
     inkscape:label="Warstwa 1"
     inkscape:groupmode="layer"
     id="layer1"
     transform="translate(206.33462,0.61898779)">
    <path
       style="fill:#e3007d;fill-opacity:1;fill-rule:nonzero;stroke:none;stroke-width:0.352778"
       d="m -199.53314,2.2078069 0.0537,4.4979166 -1.90583,0.022049 -0.0386,-3.1736241 c -0.001,-0.1185087 -0.0992,-0.2135928 -0.21773,-0.212217 l -1.56132,0.017921 c -0.11851,0.00141 -0.21497,0.099219 -0.21359,0.2177309 l 0.0372,3.1736206 -1.90582,0.022049 -0.0538,-4.4979166 c 0,-0.00688 0,-0.013794 0,-0.020673 l 2.87459,-2.37987054 2.93247,2.31096954 c 0,0.00688 -0.001,0.01517 -0.001,0.022049 m -2.28479,4.5254756 -1.12861,0.013794 -0.0344,-2.9572725 1.12723,-0.013794 z m 3.12126,-0.023424 -0.35002,0.00282 -0.0496,-4.1837257 0.21635,0.1694992 c 0.091,0.075794 0.24254,0.050987 0.30179,-0.033055 0.0372,-0.044097 0.0538,-0.1019739 0.0482,-0.1598507 -0.007,-0.057877 -0.0372,-0.110243 -0.0813,-0.1460711 l -3.72071,-2.9310894 c -0.0785,-0.0647665 -0.19706,-0.0620113 -0.27285,0.001411 l -3.65042,3.0192803 c -0.0441,0.035828 -0.073,0.089574 -0.0786,0.1474505 -0.006,0.056501 0.0138,0.115757 0.0482,0.1557197 0.0372,0.046852 0.0896,0.074411 0.14745,0.079925 0.0606,0.00413 0.11438,-0.012418 0.15848,-0.048232 l 0.21359,-0.1763889 0.0482,4.1851015 -0.35002,0.00413 c -0.11989,0.00141 -0.21635,0.099219 -0.21497,0.2191067 0.001,0.1185122 0.1006,0.2149758 0.21911,0.2122206 l 7.3725,-0.086819 c 0.11989,-0.00141 0.21498,-0.099219 0.2136,-0.2177274 -0.001,-0.1185122 -0.0992,-0.2149757 -0.21911,-0.2135964"
       id="path68" />
  </g>
</svg>
